<svg xmlns="http://www.w3.org/2000/svg" viewBox="0 0 16 16">
  <defs>
    <style>.canvas{fill: none; opacity: 0;}.light-lightblue-10{fill: #0077a0; opacity: 0.1;}.light-lightblue{fill: #0077a0; opacity: 1;}.light-blue{fill: #005dba; opacity: 1;}</style>
  </defs>
  <title>IconLightCloudRefresh</title>
  <g id="canvas">
    <path class="canvas" d="M16,16H0V0H16Z" />
  </g>
  <g id="level-1">
    <path class="light-lightblue-10" d="M7.762,10H4.579A2.606,2.606,0,0,1,2,7.375,2.737,2.737,0,0,1,2.037,7,2.591,2.591,0,0,1,4.579,4.75a2.459,2.459,0,0,1,.662.091L5.816,4.6A3,3,0,0,1,8.447,3a3.048,3.048,0,0,1,3.008,3.008l.5.492h.325a1.728,1.728,0,0,1,1.7,1.505l0-.005H11.5A4.5,4.5,0,0,0,7.762,10Z" />
    <path class="light-lightblue" d="M7.257,11H4.548a3.625,3.625,0,0,1,0-7.249,3.48,3.48,0,0,1,.567.047A3.963,3.963,0,0,1,12.37,5.5,2.731,2.731,0,0,1,14.977,8H14a2.959,2.959,0,0,0-.492-.98,1.737,1.737,0,0,0-1.221-.52h-.859V6.064A3.037,3.037,0,0,0,9.577,3.242,2.983,2.983,0,0,0,5.609,4.989a2.51,2.51,0,0,0-1.061-.238,2.625,2.625,0,0,0,0,5.249H7.76A4.528,4.528,0,0,0,7.257,11Z" />
    <path class="light-blue" d="M11.5,9A3.5,3.5,0,0,1,14,10.06V9h1v2.5l-.5.5H12V11h1.5a2.5,2.5,0,1,0,.167,2.75l.865.5A3.5,3.5,0,1,1,11.5,9Z" />
  </g>
</svg>
