<svg xmlns="http://www.w3.org/2000/svg" viewBox="0 0 16 16">
  <defs>
    <style>.canvas{fill: none; opacity: 0;}.light-red-10{fill: #c50b17; opacity: 0.1;}.light-red{fill: #c50b17; opacity: 1;}.light-defaultgrey{fill: #212121; opacity: 1;}.cls-1{opacity:0.75;}</style>
  </defs>
  <title>IconLightCPPATLProperty</title>
  <g id="canvas" class="canvas">
    <path class="canvas" d="M16,16H0V0H16Z" />
  </g>
  <g id="level-1">
    <g class="cls-1">
      <path class="light-red-10" d="M5.317,9.964H6.865c.634-.631,1.251-1.248,1.8-1.8A3.919,3.919,0,0,1,7.9,7.4l0,.006C7.125,8.174,6.212,9.074,5.317,9.964Z" />
    </g>
    <g class="cls-1">
      <path class="light-red" d="M6.865,9.964H8.281c.45-.45.88-.882,1.271-1.274a3.855,3.855,0,0,1-.464-.243,3.9,3.9,0,0,1-.425-.281C8.116,8.716,7.5,9.333,6.865,9.964Z" />
      <path class="light-red" d="M5.317,9.964c.895-.89,1.808-1.79,2.59-2.555l0-.006a3.719,3.719,0,0,1-.255-.389C7.643,7,7.635,7,7.63,6.985c-.015-.026-.026-.054-.04-.08a3.822,3.822,0,0,1-.2-.388C6.357,7.527,5.077,8.789,3.9,9.964Z" />
    </g>
    <path class="light-red" d="M15.1,5a3.961,3.961,0,0,1-4,4,4.194,4.194,0,0,1-1.55-.3c-.16-.07-.31-.16-.46-.24s-.43-.28-.43-.28-.594-.556-.76-.77a7.228,7.228,0,0,1-.51-.88A4.046,4.046,0,0,1,7.1,5a3.961,3.961,0,0,1,4-4,4.184,4.184,0,0,1,1.44.24L9.66,4.2,11.9,6.44l2.96-2.88A4.184,4.184,0,0,1,15.1,5Z" />
    <path class="light-defaultgrey" d="M4.787,16H3.9l-.441-1.248H1.526L1.1,16H.213l1.836-4.9h.916ZM3.238,14.09l-.68-1.955a2.492,2.492,0,0,1-.065-.309H2.479a1.97,1.97,0,0,1-.068.309L1.738,14.09Z" />
    <path class="light-defaultgrey" d="M8.313,11.789H6.905V16H6.092V11.789h-1.4V11.1H8.313Z" />
    <path class="light-defaultgrey" d="M11.714,16H9V11.1h.813v4.214h1.9Z" />
  </g>
</svg>
