<svg xmlns="http://www.w3.org/2000/svg" viewBox="0 0 16 16">
  <defs>
    <style>.canvas{fill: none; opacity: 0;}.light-red-10{fill: #c50b17; opacity: 0.1;}.light-red{fill: #c50b17; opacity: 1;}.light-defaultgrey{fill: #212121; opacity: 1;}</style>
  </defs>
  <title>IconLightCPPATLWebService</title>
  <g id="canvas" class="canvas">
    <path class="canvas" d="M16,16H0V0H16Z" />
  </g>
  <g id="level-1">
    <path class="light-red-10" d="M15.5,6A4.5,4.5,0,0,1,11,10.5V9.964H8.869A4.5,4.5,0,1,1,15.5,6Z" />
    <path class="light-red" d="M11,1A5,5,0,0,0,7.957,9.964h2.915A6.486,6.486,0,0,1,9.832,8h2.336a6.5,6.5,0,0,1-1.061,1.989c-.036,0-.07.011-.107.011v1A5,5,0,0,0,11,1Zm3.444,3H13.225a7.486,7.486,0,0,0-.712-1.7A4.011,4.011,0,0,1,14.444,4ZM10.891,2.011C10.928,2.01,10.963,2,11,2s.072.01.11.011A6.54,6.54,0,0,1,12.168,4H9.832A6.5,6.5,0,0,1,10.891,2.011ZM7.142,7A3.939,3.939,0,0,1,7,6a3.939,3.939,0,0,1,.142-1H8.574A7.583,7.583,0,0,0,8.5,6a7.583,7.583,0,0,0,.074,1Zm.414,1H8.775a7.486,7.486,0,0,0,.712,1.7A4.011,4.011,0,0,1,7.556,8ZM8.775,4H7.556A4.011,4.011,0,0,1,9.487,2.3,7.486,7.486,0,0,0,8.775,4Zm3.637,3H9.588A6.419,6.419,0,0,1,9.5,6a6.419,6.419,0,0,1,.088-1h2.824A6.419,6.419,0,0,1,12.5,6,6.419,6.419,0,0,1,12.412,7Zm.1,2.7A7.534,7.534,0,0,0,13.226,8h1.218A4.011,4.011,0,0,1,12.513,9.7ZM13.426,7A7.583,7.583,0,0,0,13.5,6a7.583,7.583,0,0,0-.074-1h1.432A3.939,3.939,0,0,1,15,6a3.939,3.939,0,0,1-.142,1Z" />
    <path class="light-red" d="M5,3V4H2V3ZM4,6H0V7H4ZM2,10H5V9H2Z" />
    <path class="light-defaultgrey" d="M4.787,16H3.9l-.441-1.248H1.526L1.1,16H.213l1.836-4.9h.916ZM3.238,14.09l-.68-1.955a2.492,2.492,0,0,1-.065-.309H2.479a1.97,1.97,0,0,1-.068.309L1.738,14.09Z" />
    <path class="light-defaultgrey" d="M8.313,11.789H6.905V16H6.092V11.789h-1.4V11.1H8.313Z" />
    <path class="light-defaultgrey" d="M11.714,16H9V11.1h.813v4.214h1.9Z" />
  </g>
</svg>
