<svg xmlns="http://www.w3.org/2000/svg" viewBox="0 0 16 16">
  <defs>
    <style>.canvas{fill: none; opacity: 0;}.light-red-10{fill: #c50b17; opacity: 0.1;}.light-red{fill: #c50b17; opacity: 1;}.light-defaultgrey{fill: #212121; opacity: 1;}</style>
  </defs>
  <title>IconLightCPPATLDialog</title>
  <g id="canvas" class="canvas">
    <path class="canvas" d="M16,16H0V0H16Z" />
  </g>
  <g id="level-1">
    <path class="light-red-10" d="M14.5,2.5v11H11V10H1.5V2.5Z" />
    <path class="light-red" d="M14.5,2H1.5L1,2.5V10H2V5H14v8H11v1h3.5l.5-.5V2.5ZM2,4V3H14V4Z" />
    <path class="light-red" d="M13,10v1H11V10ZM7,6H3V7H7ZM7,8H3V9H7Zm6-1.5v2l-.5.5h-4L8,8.5v-2L8.5,6h4ZM12,7H9V8h3Z" />
    <path class="light-defaultgrey" d="M4.787,16H3.9l-.441-1.248H1.526L1.1,16H.213l1.836-4.9h.916ZM3.238,14.09l-.68-1.955a2.492,2.492,0,0,1-.065-.309H2.479a1.97,1.97,0,0,1-.068.309L1.738,14.09Z" />
    <path class="light-defaultgrey" d="M8.313,11.789H6.905V16H6.092V11.789h-1.4V11.1H8.313Z" />
    <path class="light-defaultgrey" d="M11.714,16H9V11.1h.813v4.214h1.9Z" />
  </g>
</svg>
