<svg xmlns="http://www.w3.org/2000/svg" viewBox="0 0 16 16">
  <defs>
    <style>.canvas{fill: none; opacity: 0;}.light-lightblue-10{fill: #0077a0; opacity: 0.1;}.light-lightblue{fill: #0077a0; opacity: 1;}.light-blue-10{fill: #005dba; opacity: 0.1;}.light-blue{fill: #005dba; opacity: 1;}</style>
  </defs>
  <title>IconLightDatabaseAuditSpecification</title>
  <g id="canvas" class="canvas">
    <path class="canvas" d="M16,16H0V0H16Z" />
  </g>
  <g id="level-1">
    <path class="light-lightblue-10" d="M13.5,2.97V11c0,.828-1.791,1.5-4,1.5-.336,0-.658-.02-.97-.049L7.66,11.6A3.916,3.916,0,0,0,8,10,4,4,0,0,0,5.5,6.3V2.97c0-.828,1.791-1.5,4-1.5S13.5,2.142,13.5,2.97Z" />
    <path class="light-lightblue" d="M5,2.97V6.142a3.93,3.93,0,0,1,1,.414V4.261a7.863,7.863,0,0,0,3.5.709A7.863,7.863,0,0,0,13,4.261V11c0,.29-1.227,1-3.5,1a9.3,9.3,0,0,1-1.559-.126l1.134,1.11c.142.005.283.016.425.016,2.236,0,4.5-.687,4.5-2V2.97C14,.343,5,.343,5,2.97Zm4.5,1c-2.273,0-3.5-.71-3.5-1s1.227-1,3.5-1,3.5.71,3.5,1S11.773,3.97,9.5,3.97Z" />
    <path class="light-blue-10" d="M1.5,10A2.5,2.5,0,1,1,4,12.5,2.5,2.5,0,0,1,1.5,10Z" />
    <path class="light-blue" d="M9.85,15.143,6.408,11.772A2.969,2.969,0,0,0,7,10a3.008,3.008,0,1,0-1.306,2.472L9.15,15.857ZM2,10a2,2,0,1,1,2,2A2,2,0,0,1,2,10Z" />
  </g>
</svg>
