<svg xmlns="http://www.w3.org/2000/svg" viewBox="0 0 16 16">
  <defs>
    <style>.canvas{fill: none; opacity: 0;}.light-lightblue-10{fill: #0077a0; opacity: 0.1;}.light-lightblue{fill: #0077a0; opacity: 1;}.light-defaultgrey-10{fill: #212121; opacity: 0.1;}.light-defaultgrey{fill: #212121; opacity: 1;}.light-yellow{fill: #996f00; opacity: 1;}.white{fill: #ffffff; opacity: 1;}</style>
  </defs>
  <title>IconLightDatabaseRoleWarning</title>
  <g id="canvas" class="canvas">
    <path class="canvas" d="M16,16H0V0H16Z" />
  </g>
  <g id="level-1">
    <path class="light-lightblue-10" d="M13.5,2.97V8.084l-.91-1.809H10.459L7.7,11.826h0l-.071.143-.137.276h0l-.233.469a4.214,4.214,0,0,0-.584-.653A6.07,6.07,0,0,1,5.5,11.424V2.97c0-.828,1.791-1.5,4-1.5S13.5,2.142,13.5,2.97Z" />
    <path class="light-lightblue" d="M6,4.261a7.863,7.863,0,0,0,3.5.709A7.863,7.863,0,0,0,13,4.261V7.09l1,1.987V2.97c0-2.627-9-2.627-9,0V6.7a2.738,2.738,0,0,1,1,.679ZM9.5,1.97c2.273,0,3.5.71,3.5,1s-1.227,1-3.5,1S6,3.26,6,2.97,7.227,1.97,9.5,1.97Z" />
    <path class="light-defaultgrey-10" d="M4,10.5A2.25,2.25,0,1,1,6.25,8.25,2.25,2.25,0,0,1,4,10.5ZM6.624,14H.5a3.5,3.5,0,0,1,6.754-1.269Z" />
    <path class="light-defaultgrey" d="M6.933,13.377l.6-1.216A4.037,4.037,0,0,0,5.7,10.394a2.75,2.75,0,1,0-3.4,0A4,4,0,0,0,0,14H1a3,3,0,0,1,5.933-.623ZM4,10A1.75,1.75,0,1,1,5.75,8.25,1.752,1.752,0,0,1,4,10Z" />
    <path class="light-yellow" d="M16,15.275,15.553,16h-8l-.448-.723,3.974-8h.895Z" />
    <path class="white" d="M12.053,13h-1V10h1Zm.25,1.5a.75.75,0,1,1-.75-.75A.75.75,0,0,1,12.3,14.5Z" />
  </g>
</svg>
