<svg xmlns="http://www.w3.org/2000/svg" viewBox="0 0 16 16">
  <defs>
    <style>.canvas{fill: none; opacity: 0;}.light-lightblue-10{fill: #0077a0; opacity: 0.1;}.light-lightblue{fill: #0077a0; opacity: 1;}.light-yellow{fill: #996f00; opacity: 1;}.white{fill: #ffffff; opacity: 1;}</style>
  </defs>
  <title>IconLightDatabaseWarning</title>
  <g id="canvas" class="canvas">
    <path class="canvas" d="M16,16H0V0H16Z" />
  </g>
  <g id="level-1">
    <path class="light-lightblue-10" d="M6.5,12.5c-2.209,0-4-.671-4-1.5V2.97c0-.828,1.791-1.5,4-1.5s4,.672,4,1.5V6.275h-.041L7.388,12.46C7.1,12.485,6.806,12.5,6.5,12.5Z" />
    <path class="light-lightblue" d="M7.132,12.976l.521-1.049A9.524,9.524,0,0,1,6.5,12C4.227,12,3,11.29,3,11V4.261a7.863,7.863,0,0,0,3.5.709A7.863,7.863,0,0,0,10,4.261V7.2l.459-.925H11V2.97c0-2.627-9-2.627-9,0V11c0,1.314,2.264,2,4.5,2C6.712,13,6.922,12.988,7.132,12.976ZM6.5,1.97c2.273,0,3.5.71,3.5,1s-1.227,1-3.5,1S3,3.26,3,2.97,4.227,1.97,6.5,1.97Z" />
    <path class="light-yellow" d="M15.5,16h-8l-.439-.739,4-7.261h.878l4,7.261Z" />
    <path class="white" d="M12,13H11V10h1Zm.25,1.5a.75.75,0,1,1-.75-.75A.75.75,0,0,1,12.25,14.5Z" />
  </g>
</svg>
