<svg xmlns="http://www.w3.org/2000/svg" viewBox="0 0 16 16">
  <defs>
    <style>.canvas{fill: none; opacity: 0;}.light-purple-10{fill: #6936aa; opacity: 0.1;}.light-purple{fill: #6936aa; opacity: 1;}.light-lightblue-10{fill: #0077a0; opacity: 0.1;}.light-lightblue{fill: #0077a0; opacity: 1;}</style>
  </defs>
  <title>IconLightDatabaseMethod</title>
  <g id="canvas" class="canvas">
    <path class="canvas" d="M16,16H0V0H16Z" />
  </g>
  <g id="level-1">
    <path class="light-purple-10" d="M4.5,6.432l4,2.333V13.5l-4,2-4-2V8.765Z" />
    <path class="light-purple" d="M8.752,8.333,4.752,6h-.5l-4,2.333L0,8.765V13.5l.276.448,4,2h.448l4-2L9,13.5V8.765ZM4.5,7.011,7.719,8.888,4.5,10.5,1.281,8.888ZM1,9.865l3,1.5v3.329l-3-1.5Zm7,3.329-3,1.5V11.365l3-1.5Z" />
    <path class="light-lightblue-10" d="M14.5,3v8c0,.828-1.791,1.5-4,1.5-.171,0-.334-.011-.5-.019V8.5L9.486,7.6,6.5,5.862V3c0-.828,1.791-1.5,4-1.5S14.5,2.172,14.5,3Z" />
    <path class="light-lightblue" d="M6,2.969v2.6l1,.583V4.3A7.9,7.9,0,0,0,10.5,5,7.913,7.913,0,0,0,14,4.3V11c0,.29-1.227,1-3.5,1-.177,0-.336-.011-.5-.019v1c.167.007.333.019.5.019,2.236,0,4.5-.687,4.5-2V2.969C15,.344,6,.344,6,2.969Zm8,.046C14,3.3,12.773,4,10.5,4S7,3.3,7,3.015v-.03C7,2.7,8.227,2,10.5,2s3.5.7,3.5.985Z" />
  </g>
</svg>
