<svg xmlns="http://www.w3.org/2000/svg" viewBox="0 0 16 16">
  <defs>
    <style>.canvas{fill: none; opacity: 0;}.light-lightblue-10{fill: #0077a0; opacity: 0.1;}.light-lightblue{fill: #0077a0; opacity: 1;}.light-defaultgrey-10{fill: #212121; opacity: 0.1;}.light-defaultgrey{fill: #212121; opacity: 1;}.light-red{fill: #c50b17; opacity: 1;}.white{fill: #ffffff; opacity: 1;}</style>
  </defs>
  <title>IconLightDatabaseRoleError</title>
  <g id="canvas" class="canvas">
    <path class="canvas" d="M16,16H0V0H16Z" />
  </g>
  <g id="level-1">
    <path class="light-lightblue-10" d="M13.5,2.97V7.255A4.942,4.942,0,0,0,12,7a5.006,5.006,0,0,0-5,5c0,.049.013.1.014.143-.2-.044-.318-.075-.318-.075a6.052,6.052,0,0,1-1.2-.644V9.916a2.225,2.225,0,0,0,0-3.332V2.97c0-.828,1.791-1.5,4-1.5S13.5,2.142,13.5,2.97Z" />
    <path class="light-lightblue" d="M6,4.261a7.863,7.863,0,0,0,3.5.709A7.863,7.863,0,0,0,13,4.261V7.1a4.91,4.91,0,0,1,1,.323V2.97c0-2.627-9-2.627-9,0V6.7a2.738,2.738,0,0,1,1,.679ZM9.5,1.97c2.273,0,3.5.71,3.5,1s-1.227,1-3.5,1S6,3.26,6,2.97,7.227,1.97,9.5,1.97Z" />
    <path class="light-defaultgrey-10" d="M4,10.5A2.25,2.25,0,1,1,6.25,8.25,2.25,2.25,0,0,1,4,10.5ZM7.424,14H.5a3.489,3.489,0,0,1,6.528-1.726A4.966,4.966,0,0,0,7.424,14Z" />
    <path class="light-defaultgrey" d="M7,12a4.7,4.7,0,0,1,.057-.56A4.07,4.07,0,0,0,5.7,10.394a2.75,2.75,0,1,0-3.4,0A4,4,0,0,0,0,14H1a3,3,0,0,1,6,0h.424A4.95,4.95,0,0,1,7,12ZM4,10A1.75,1.75,0,1,1,5.75,8.25,1.752,1.752,0,0,1,4,10Z" />
    <path class="light-red" d="M12,8a4,4,0,1,0,4,4A4,4,0,0,0,12,8Z" />
    <path class="white" d="M12.707,12l1.147,1.146-.708.708L12,12.707l-1.146,1.147-.708-.708L11.293,12l-1.147-1.146.708-.708L12,11.293l1.146-1.147.708.708Z" />
  </g>
</svg>
