<svg xmlns="http://www.w3.org/2000/svg" viewBox="0 0 16 16">
  <defs>
    <style>.canvas{fill: none; opacity: 0;}.light-defaultgrey-10{fill: #212121; opacity: 0.1;}.light-defaultgrey{fill: #212121; opacity: 1;}.light-red{fill: #c50b17; opacity: 1;}.light-green{fill: #1f801f; opacity: 1;}.light-blue{fill: #005dba; opacity: 1;}</style>
  </defs>
  <title>IconLightDataBar</title>
  <g id="canvas" class="canvas">
    <path class="canvas" d="M16,16H0V0H16Z" />
  </g>
  <g id="level-1">
    <path class="light-defaultgrey-10" d="M14.5,13.5H1.5V1.5h13Z" />
    <path class="light-defaultgrey" d="M14.5,14H1.5L1,13.5V1.5L1.5,1h13l.5.5v12ZM2,13H14V2H2Z" />
    <path class="light-red" d="M11,11H7V10h4ZM4,10H3v1H4Zm9,0H12v1h1Z" />
    <path class="light-green" d="M11,8H8V7h3ZM4,7H3V8H4Zm9,0H12V8h1Z" />
    <path class="light-blue" d="M11,5H6V4h5ZM4,4H3V5H4Zm9,0H12V5h1Z" />
  </g>
</svg>
