<svg xmlns="http://www.w3.org/2000/svg" viewBox="0 0 16 16">
  <defs>
    <style>.canvas{fill: none; opacity: 0;}.light-red-10{fill: #c50b17; opacity: 0.1;}.light-red{fill: #c50b17; opacity: 1;}</style>
  </defs>
  <title>IconLightHealth</title>
  <g id="canvas">
    <path class="canvas" d="M16,16H0V0H16Z" />
  </g>
  <g id="level-1">
    <path class="light-red-10" d="M14.5,5.75A3.235,3.235,0,0,1,13.588,8C13.581,8.01,8,13.5,8,13.5S2.416,8.007,2.412,8A3.245,3.245,0,0,1,4.75,2.5C6.459,2.5,8,4.75,8,4.75S9.541,2.5,11.25,2.5A3.25,3.25,0,0,1,14.5,5.75Z" />
    <path class="light-red" d="M15,5.75A3.755,3.755,0,0,0,11.25,2C9.855,2,8.617,3.211,8,3.938,7.383,3.211,6.145,2,4.75,2A3.755,3.755,0,0,0,1,5.75a3.621,3.621,0,0,0,.992,2.521c.034.053.034.053,5.657,5.585L8,14.2l.351-.345c5.356-5.268,5.6-5.51,5.6-5.51h0A3.728,3.728,0,0,0,15,5.75Zm-1.769,1.9c-.1.1-4.023,3.96-5.231,5.149-1.208-1.19-5.133-5.051-5.228-5.146A2.745,2.745,0,0,1,4.75,3C5.931,3,7.2,4.468,7.588,5.033l.412.6.412-.6C8.8,4.468,10.069,3,11.25,3a2.745,2.745,0,0,1,1.981,4.65Z" />
    <path class="light-red" d="M13.683,7a2.747,2.747,0,0,1-.452.65L12.877,8H11.293L10.5,7.207,8,9.707,4.976,6.683,3.713,8H3.124l-.352-.347A2.743,2.743,0,0,1,2.318,7h.969L4.96,5.253,8,8.293l2.5-2.5L11.707,7Z" />
  </g>
</svg>
