<!-- Exported by Character Map UWP -->
<svg height="100%" viewBox="0 0 1024 1024" width="100%" xmlns="http://www.w3.org/2000/svg" xmlns:xlink="http://www.w3.org/1999/xlink">
  <path d="M736,384C727.333,384 719.833,380.833 713.5,374.5C707.167,368.167 704,360.667 704,352C704,343.333 707.167,335.833 713.5,329.5C719.833,323.167 727.333,320 736,320L917,320C899,281 875.75,245.75 847.25,214.25C818.75,182.75 786.833,155.833 751.5,133.5C716.167,111.167 678.167,94.0001 637.5,82C596.833,70.0001 555,64.0001 512,64L507.5,64C470.167,64.0001 433.583,68.8334 397.75,78.5C361.917,88.1667 327.917,101.833 295.75,119.5C263.583,137.167 233.833,158.667 206.5,184C179.167,209.333 155.333,237.5 135,268.5C122.333,288.167 111.333,308.667 102,330C99.6667,335.333 97.6667,340.75 96,346.25C94.3333,351.75 92.1667,357.167 89.5,362.5C86.5,369.167 82.6667,374.417 78,378.25C73.3333,382.083 67.1667,384 59.5,384C50.5,384 42.9167,380.917 36.75,374.75C30.5833,368.583 27.5,361 27.5,352C27.5,348.667 28,345.167 29,341.5C46.3333,291.5 71,245.583 103,203.75C135,161.917 172.083,125.917 214.25,95.75C256.417,65.5834 302.417,42.0834 352.25,25.25C402.083,8.41669 453.5,0 506.5,0C553.5,0 599.333,5.91669 644,17.75C688.667,29.5834 730.583,46.8334 769.75,69.5C808.917,92.1667 844.667,119.833 877,152.5C909.333,185.167 937,222.333 960,264L960,96C960,87.3334 963.167,79.8334 969.5,73.5C975.833,67.1667 983.333,64.0001 992,64C1000.67,64.0001 1008.17,67.1667 1014.5,73.5C1020.83,79.8334 1024,87.3334 1024,96L1024,352C1024,360.667 1020.83,368.167 1014.5,374.5C1008.17,380.833 1000.67,384 992,384ZM448,736C448,696.333 455.583,659 470.75,624C485.917,589 506.5,558.5 532.5,532.5C558.5,506.5 589,485.917 624,470.75C659,455.583 696.333,448 736,448C762.333,448 787.75,451.417 812.25,458.25C836.75,465.083 859.667,474.75 881,487.25C902.333,499.75 921.833,514.833 939.5,532.5C957.167,550.167 972.25,569.667 984.75,591C997.25,612.333 1006.92,635.25 1013.75,659.75C1020.58,684.25 1024,709.667 1024,736C1024,775.667 1016.42,813 1001.25,848C986.083,883 965.5,913.5 939.5,939.5C913.5,965.5 883,986.083 848,1001.25C813,1016.42 775.667,1024 736,1024C696,1024 658.5,1016.5 623.5,1001.5C588.5,986.5 558,966 532,940C506,914 485.5,883.5 470.5,848.5C455.5,813.5 448,776 448,736ZM768,736L768,608C768,599.333 764.833,591.833 758.5,585.5C752.167,579.167 744.667,576 736,576C727.333,576 719.833,579.167 713.5,585.5C707.167,591.833 704,599.333 704,608L704,736C704,744.667 707.167,752.167 713.5,758.5C719.833,764.833 727.333,768 736,768C744.667,768 752.167,764.833 758.5,758.5C764.833,752.167 768,744.667 768,736ZM505,1024C460,1024 416,1018.17 373,1006.5C330,994.833 289.333,978.167 251,956.5C212.667,934.833 177.5,908.417 145.5,877.25C113.5,846.083 86.3333,811 64,772L64,928C64,936.667 60.8333,944.167 54.5,950.5C48.1667,956.833 40.6667,960 32,960C23.3333,960 15.8333,956.833 9.5,950.5C3.16667,944.167 0,936.667 0,928L0,672C0,663.333 3.16667,655.833 9.5,649.5C15.8333,643.167 23.3333,640 32,640L288,640C296.667,640 304.167,643.167 310.5,649.5C316.833,655.833 320,663.333 320,672C320,680.667 316.833,688.167 310.5,694.5C304.167,700.833 296.667,704 288,704L100.5,704C116.5,737.667 136.25,768.667 159.75,797C183.25,825.333 209.667,850.333 239,872C268.333,893.667 300,911.667 334,926C368,940.333 403.5,950.167 440.5,955.5C450.167,968.5 460.5,980.667 471.5,992C482.5,1003.33 494.333,1014 507,1024ZM776,864C776,853 772.083,843.583 764.25,835.75C756.417,827.917 747,824 736,824C725,824 715.583,827.917 707.75,835.75C699.917,843.583 696,853 696,864C696,875 699.917,884.417 707.75,892.25C715.583,900.083 725,904 736,904C747,904 756.417,900.083 764.25,892.25C772.083,884.417 776,875 776,864Z" fill="#000000" fill-opacity="1">
  </path>
</svg>