<svg width="48" height="48" viewBox="0 0 48 48" fill="none" xmlns="http://www.w3.org/2000/svg">
<path d="M13.7944 37.6536C13.7944 38.4116 14.2125 39.0637 14.8226 39.4072C14.8219 39.4108 22.5206 43.7453 22.5206 43.7453C23.1085 44.0945 23.7915 44.2987 24.5223 44.2987C24.9895 44.2987 25.4353 44.2137 25.8518 44.0635L28.482 43.2994L28.4824 35.6395C28.4824 35.6395 15.7871 35.6399 15.78 35.6399C14.6841 35.6399 13.7944 36.5412 13.7944 37.6536Z" fill="url(#paint0_linear)"/>
<path d="M24.5058 4C23.8801 4 23.2433 4.12823 22.6807 4.42331C22.5716 4.48504 10.1574 11.4926 10.1574 11.4926C9.98611 11.5806 9.82354 11.681 9.6685 11.7925C9.65304 11.8032 9.63877 11.8148 9.6237 11.8259C9.52814 11.8964 9.43575 11.9705 9.34733 12.0493C9.3057 12.0852 9.26526 12.1218 9.2256 12.1597C9.17247 12.2106 9.12172 12.264 9.07136 12.3177C8.92267 12.4754 8.66811 12.8227 8.66811 12.8227C8.24663 13.4551 8 14.2137 8 15.0309V33.6479C8 34.7478 8.89016 35.6395 9.98848 35.6395C10.2617 35.6395 10.5222 35.5837 10.7593 35.4837C10.7593 35.4837 14.3084 33.4858 14.3116 33.4831C14.9516 33.1593 15.4599 32.6137 15.7323 31.9451C15.7953 31.8006 15.8457 31.6393 15.883 31.4585C15.8929 31.4127 15.9004 31.3657 15.9079 31.3191C15.9123 31.2936 15.9163 31.2689 15.9198 31.243C15.9309 31.1642 15.9389 31.0853 15.944 31.0049C15.948 30.9416 15.9531 30.8803 15.9531 30.8173V20.9107C15.9531 18.5205 15.9535 17.8192 15.9535 17.8192C15.9535 16.9706 16.3092 16.2072 16.8766 15.6636C16.8893 15.6513 16.902 15.6397 16.9147 15.6278C17.1887 15.3694 17.5499 15.1507 17.9801 14.9938C18.4103 14.8369 28.4824 11.1689 28.4824 11.1689V5.00194L25.6248 4.16208C25.2699 4.05814 24.8948 4 24.5058 4Z" fill="url(#paint1_linear)"/>
<path d="M28.257 40.4335C28.2661 42.1578 27.1398 43.6378 25.5305 44.1877C25.8855 44.0877 37.1195 40.9352 37.1195 40.9352C38.785 40.421 39.9925 38.9026 39.9925 37.1084V11.2493C39.9925 9.4551 38.785 7.93705 37.1195 7.42287C37.1195 7.42287 25.7177 4.1632 25.5322 4.11102C27.2059 4.75123 28.257 6.18579 28.257 7.92621C28.257 7.92621 28.2488 39.6708 28.257 40.4335Z" fill="url(#paint2_linear)"/>
<defs>
<linearGradient id="paint0_linear" x1="20.0548" y1="41.5706" x2="28.4824" y2="41.5706" gradientUnits="userSpaceOnUse">
<stop stop-color="#F32B44"/>
<stop offset="1" stop-color="#940F1A"/>
</linearGradient>
<linearGradient id="paint1_linear" x1="19.6433" y1="-10.4418" x2="-8.64566" y2="6.62938" gradientUnits="userSpaceOnUse">
<stop stop-color="#690500"/>
<stop offset="0.572527" stop-color="#C72127"/>
<stop offset="0.756218" stop-color="#BF4068"/>
<stop offset="1" stop-color="#B85BA2"/>
</linearGradient>
<linearGradient id="paint2_linear" x1="25.9379" y1="4.11102" x2="25.9379" y2="41.9299" gradientUnits="userSpaceOnUse">
<stop stop-color="#FFCD05"/>
<stop offset="0.0633127" stop-color="#F4A204"/>
<stop offset="0.162109" stop-color="#E97B03"/>
<stop offset="0.526825" stop-color="#D83B01"/>
<stop offset="1" stop-color="#D83B01"/>
</linearGradient>
</defs>
</svg>
