<svg xmlns="http://www.w3.org/2000/svg" viewBox="0 0 16 16">
  <defs>
    <style>.canvas{fill: none; opacity: 0;}.light-blue-10{fill: #005dba; opacity: 0.1;}.light-blue{fill: #005dba; opacity: 1;}.light-darkblue{fill: #313c9e; opacity: 1;}</style>
  </defs>
  <title>IconLightMapWizard</title>
  <g id="canvas">
    <path class="canvas" d="M16,16H0V0H16Z" />
  </g>
  <g id="level-1">
    <path class="light-blue-10" d="M12.6,3.4A6.507,6.507,0,0,0,6.29,1.73a1.459,1.459,0,0,1,.7,1.19A.22.22,0,0,1,7,3,1.508,1.508,0,0,1,8.47,4.21l.05.27.27.05A1.476,1.476,0,0,1,9.61,5a1.491,1.491,0,0,1-.82,2.47l-.27.05-.05.27a1.5,1.5,0,0,1-2.94,0l-.02-.13-.03-.14-.27-.05a1.492,1.492,0,0,1-.67-.32,1.415,1.415,0,0,1-.44-.63A1.5,1.5,0,0,1,3,7a1.42,1.42,0,0,1-.85-.28,1.265,1.265,0,0,1-.42-.44,6.427,6.427,0,0,0-.11,2.99,6.506,6.506,0,0,0,8.87,4.74A6.512,6.512,0,0,0,12.6,3.4Z" />
    <path class="light-blue" d="M12.95,3.05A7,7,0,0,0,5.48,1.47l.31.06a1.5,1.5,0,0,1,1.2,1.39,9.208,9.208,0,0,1,.64-.9C7.75,2.01,7.87,2,8,2s.25.01.37.02A9.327,9.327,0,0,1,10,5H9.61A1.506,1.506,0,0,1,10,6h.28a9.648,9.648,0,0,1,.22,2,9.648,9.648,0,0,1-.22,2H5.72A9.648,9.648,0,0,1,5.5,8c0-.11,0-.23.01-.34l-.03-.14-.27-.05a1.492,1.492,0,0,1-.67-.32A10.1,10.1,0,0,0,4.7,10H2.35A5.93,5.93,0,0,1,2,8a5.528,5.528,0,0,1,.15-1.28,1.265,1.265,0,0,1-.42-.44,1.334,1.334,0,0,1-.2-.49l-.06-.3a6.942,6.942,0,0,0-.34,3.88A7,7,0,1,0,12.95,3.05ZM11.3,6h2.35a5.85,5.85,0,0,1,0,4H11.3A10.354,10.354,0,0,0,11.3,6ZM9.79,2.27A6.067,6.067,0,0,1,13.19,5H11.05A10.577,10.577,0,0,0,9.79,2.27ZM11.05,11h2.14a6.067,6.067,0,0,1-3.4,2.73A10.733,10.733,0,0,0,11.05,11Zm-1.04,0a9.525,9.525,0,0,1-1.63,2.98c-.13.01-.25.02-.38.02s-.25-.01-.37-.02A9.525,9.525,0,0,1,6,11ZM4.95,11a10.256,10.256,0,0,0,1.26,2.73A6.067,6.067,0,0,1,2.81,11Z" />
    <path class="light-darkblue" d="M.4,2.51l1.313-.263a.678.678,0,0,0,.532-.532L2.51.4a.5.5,0,0,1,.98,0l.263,1.313a.678.678,0,0,0,.532.532L5.6,2.51a.5.5,0,0,1,0,.98l-1.313.263a.678.678,0,0,0-.532.532L3.49,5.6a.5.5,0,0,1-.98,0L2.247,4.285a.678.678,0,0,0-.532-.532L.4,3.49a.5.5,0,0,1,0-.98Z" />
    <path class="light-blue" d="M5.4,5.51l.786-.157a.212.212,0,0,0,.165-.163L6.51,4.4a.5.5,0,0,1,.98,0l.157.786a.212.212,0,0,0,.163.165L8.6,5.51a.5.5,0,0,1,0,.98l-.786.157a.212.212,0,0,0-.165.163L7.49,7.6a.5.5,0,0,1-.98,0l-.157-.786a.212.212,0,0,0-.163-.165L5.4,6.49a.5.5,0,0,1,0-.98Z" />
  </g>
</svg>
