<svg xmlns="http://www.w3.org/2000/svg" viewBox="0 0 16 16">
  <defs>
    <style>.canvas{fill: none; opacity: 0;}.light-defaultgrey-10{fill: #212121; opacity: 0.1;}.light-defaultgrey{fill: #212121; opacity: 1;}</style>
  </defs>
  <title>IconLightMegaphone</title>
  <g id="canvas">
    <path class="canvas" d="M16,0V16H0V0Z" />
  </g>
  <g id="level-1">
    <path class="light-defaultgrey-10" d="M.977,11.516l2.829,2.828,9.545-6.01L6.988,1.97Z" />
    <path class="light-defaultgrey" d="M10,2H9V0h1Zm1.879.414.707.707L14,1.707,13.293,1ZM13,6h2V5H13Z" />
    <path class="light-defaultgrey" d="M13.705,7.98,7.341,1.616,6.565,1.7.554,11.249l.07.62L3.452,14.7l.62.069L5.61,13.8a2.993,2.993,0,0,0,5.049-3.179l2.959-1.863ZM10,12a1.991,1.991,0,0,1-3.538,1.263L9.8,11.158A1.958,1.958,0,0,1,10,12ZM3.877,13.708,1.613,11.444,7.077,2.766l5.478,5.478Z" />
  </g>
</svg>
