<svg xmlns="http://www.w3.org/2000/svg" viewBox="0 0 16 16">
  <defs>
    <style>.canvas{fill: none; opacity: 0;}.light-purple-10{fill: #6936aa; opacity: 0.1;}.light-purple{fill: #6936aa; opacity: 1;}.light-defaultgrey{fill: #212121; opacity: 1;}.cls-1{opacity:0.75;}</style>
  </defs>
  <title>IconLightMoveMethod</title>
  <g id="canvas" class="canvas">
    <path class="canvas" d="M16,16H0V0H16Z" />
  </g>
  <g id="level-1">
    <g class="cls-1">
      <path class="light-purple-10" d="M8,11.845,6,13,1.5,10.4V5.189L6.009,2.4,10.5,5.189V10.4L9.464,11H8Z" />
      <path class="light-purple" d="M11,5.189l-.236-.424L6.273,1.97H5.746l-4.509,2.8L1,5.189V10.4l.25.433,4.5,2.6h.5L8,12.422V11.268l-1.5.866,0-4.059L10,6.055v4.058L8.464,11h2l.286-.165L11,10.4v-.031l-.018-.017L11,10.336ZM6.009,2.983l3.52,2.191L6,7.21,2.474,5.174ZM2,10.113V6.056l3.5,2.02,0,4.058Z" />
    </g>
    <path class="light-purple-10" d="M6.009,2.4,10.5,5.189,6,7.787l-4.5-2.6Z" />
    <path class="light-purple" d="M5.753,8.221l-4.5-2.6-.013-.858L5.746,1.97h.527l4.491,2.8-.014.857-4.5,2.6ZM2.474,5.174,6,7.21,9.528,5.174,6.009,2.983Z" />
    <path class="light-defaultgrey" d="M15.6,12.146v.708l-2.5,2.5-.708-.708L14.043,13H9V12h5.043L12.4,10.354l.708-.708Z" />
  </g>
</svg>
