<svg xmlns="http://www.w3.org/2000/svg" viewBox="0 0 16 16">
  <defs>
    <style>.canvas{fill: none; opacity: 0;}.light-blue-10{fill: #005dba; opacity: 0.1;}.light-blue{fill: #005dba; opacity: 1;}.light-yellow{fill: #996f00; opacity: 1;}</style>
  </defs>
  <title>IconLightNewCustomExpression</title>
  <g id="canvas" class="canvas">
    <path class="canvas" d="M16,16H0V0H16Z" />
  </g>
  <g id="level-1">
    <path class="light-blue-10" d="M13,3.5H8a4.07,4.07,0,0,1-.03.5,4.4,4.4,0,0,1-.73,2A4.323,4.323,0,0,1,5.79,7.37,4.368,4.368,0,0,1,4,7.97,4.07,4.07,0,0,1,3.5,8a.66.66,0,0,1-.14-.01L9,14.5,15.5,7V6Z" />
    <path class="light-blue" d="M15.85,5.65l-2.5-2.5L13,3H7.97a4.182,4.182,0,0,1,0,1h2.22l1,2H7.24A4.323,4.323,0,0,1,5.79,7.37l1.76,4.7L4,7.97A4.07,4.07,0,0,1,3.5,8a.66.66,0,0,1-.14-.01,4.4,4.4,0,0,1-.73-.07l5.99,6.91h.76l6.5-7.5L16,7V6Zm-5.4,6.42L12.35,7h2.49ZM11.31,4h1.48l2,2H12.31ZM6.72,7h4.56L9,13.08Z" />
    <path class="light-yellow" d="M3,2,3,0H4L4,2l-.5.5Zm.5,2.5L3,5V7H4V5Zm1-1L5,4,7,4V3L5,3Zm-2,0L2,3,0,3V4L2,4Zm1.708-.7h.708L6.328,1.378,5.62.671,4.208,2.088ZM2.792,4.206H2.085L.673,5.623l.707.706L2.793,4.913Zm1.414,0v.708L5.623,6.328l.706-.708L4.913,4.208ZM2.794,2.792V2.085L1.378.673.671,1.38,2.088,2.793Z" />
  </g>
</svg>
