<svg xmlns="http://www.w3.org/2000/svg" viewBox="0 0 16 16">
  <defs>
    <style>.canvas{fill: none; opacity: 0;}.light-defaultgrey-10{fill: #212121; opacity: 0.1;}.light-defaultgrey{fill: #212121; opacity: 1;}.light-yellow-10{fill: #996f00; opacity: 0.1;}.light-yellow{fill: #996f00; opacity: 1;}.cls-1{opacity:0;fill:none;}.cls-2{opacity:0.75;}</style>
  </defs>
  <title>IconLightNotificationAlert</title>
  <g id="canvas" class="canvas">
    <path class="cls-1" d="M16,16H0V0H16Z" />
    <path class="canvas" d="M16,16H0V0H16Z" />
  </g>
  <g id="level-1">
    <g class="cls-2">
      <path class="light-defaultgrey-10" d="M9.5,13a1.5,1.5,0,0,1-3,0,1.483,1.483,0,0,1,.092-.5H9.408A1.483,1.483,0,0,1,9.5,13Z" />
      <path class="light-defaultgrey" d="M9.879,12.333,9.408,12H6.592l-.471.333A1.979,1.979,0,0,0,6,13a2,2,0,0,0,4,0A1.979,1.979,0,0,0,9.879,12.333ZM8,14a1,1,0,0,1-1-1H9A1,1,0,0,1,8,14Z" />
    </g>
    <path class="light-yellow-10" d="M13.5,12.5H2.5l.589-1.768A8,8,0,0,0,3.5,8.2V6A4.5,4.5,0,0,1,8.442,1.521,4.63,4.63,0,0,1,12.5,6.193V8.2a8,8,0,0,0,.411,2.53Z" />
    <path class="light-yellow" d="M13.385,10.573A7.458,7.458,0,0,1,13,8.2V6.193a5.145,5.145,0,0,0-4.511-5.17A4.953,4.953,0,0,0,4.637,2.3,5.013,5.013,0,0,0,3,6V8.2a7.458,7.458,0,0,1-.385,2.371l-.589,1.769L2.5,13h11l.474-.658ZM3.194,12l.369-1.11A8.474,8.474,0,0,0,4,8.2V6A4.011,4.011,0,0,1,5.31,3.04,3.957,3.957,0,0,1,8.4,2.02,4.134,4.134,0,0,1,12,6.193V8.2a8.474,8.474,0,0,0,.437,2.688L12.806,12Z" />
  </g>
</svg>
