<svg xmlns="http://www.w3.org/2000/svg" viewBox="0 0 16 16">
  <defs>
    <style>.canvas{fill: none; opacity: 0;}.light-defaultgrey-10{fill: #212121; opacity: 0.1;}.light-defaultgrey{fill: #212121; opacity: 1;}.light-blue{fill: #005dba; opacity: 1;}.light-red{fill: #c50b17; opacity: 1;}.white{fill: #ffffff; opacity: 1;}.cls-1{opacity:0.75;}</style>
  </defs>
  <title>IconLightNotificationHubGroupError</title>
  <g id="canvas">
    <path class="canvas" d="M16,16H0V0H16Z" />
  </g>
  <g id="level-1">
    <g class="cls-1">
      <path class="light-defaultgrey-10" d="M3.5,1.5V3h8.41L13,4.09V7.1a5.532,5.532,0,0,1,1,.31c.17.08.34.17.5.26V1.5Z" />
      <path class="light-defaultgrey" d="M15,1.5V8a4.322,4.322,0,0,0-.5-.33c-.16-.09-.33-.18-.5-.26V2H4V3H3V1.5L3.5,1h11Z" />
    </g>
    <path class="light-defaultgrey-10" d="M.5,4.5v8h2v3l3-3H7.03A4.07,4.07,0,0,1,7,12a4.6,4.6,0,0,1,.09-.91A4.862,4.862,0,0,1,8,9a5.008,5.008,0,0,1,3-1.9,4.293,4.293,0,0,1,.5-.07V4.5Z" />
    <path class="light-defaultgrey" d="M11.5,4H.5L0,4.5v8l.5.5H2v2.5l.85.35L5.71,13H7.1a4.293,4.293,0,0,1-.07-.5A4.07,4.07,0,0,1,7,12H5.5l-.35.15L3,14.29V12.5L2.5,12H1V5H11V7.1a4.293,4.293,0,0,1,.5-.07A4.07,4.07,0,0,1,12,7V4.5Z" />
    <path class="light-blue" d="M4,9v1H7.29l-.64.65.44.44A4.862,4.862,0,0,1,8,9Zm.71-2,.64-.65-.7-.7-1.5,1.5L3.5,8H8V7Z" />
    <path class="light-red" d="M12,8a4,4,0,1,0,4,4A4,4,0,0,0,12,8Z" />
    <path class="white" d="M12.707,12l1.147,1.146-.708.708L12,12.707l-1.146,1.147-.708-.708L11.293,12l-1.147-1.146.708-.708L12,11.293l1.146-1.147.708.708Z" />
  </g>
</svg>
