<svg xmlns="http://www.w3.org/2000/svg" viewBox="0 0 16 16">
  <defs>
    <style>.canvas{fill: none; opacity: 0;}.light-defaultgrey{fill: #212121; opacity: 1;}</style>
  </defs>
  <title>IconLightProcess</title>
  <g id="canvas" class="canvas">
    <path class="canvas" d="M16,16H0V0H16Z" />
  </g>
  <g id="level-1">
    <path class="light-defaultgrey" d="M8,5V4H6.949a2.473,2.473,0,0,0-.365-.876l.745-.745-.707-.707-.745.745A2.469,2.469,0,0,0,5,2.051V1H4V2.051a2.469,2.469,0,0,0-.877.366l-.745-.745-.707.707.745.745A2.473,2.473,0,0,0,2.051,4H1V5H2.051a2.473,2.473,0,0,0,.365.876l-.745.745.707.707.745-.745A2.469,2.469,0,0,0,4,6.949V8H5V6.949a2.469,2.469,0,0,0,.877-.366l.745.745.707-.707-.745-.745A2.473,2.473,0,0,0,6.949,5ZM4.5,6A1.5,1.5,0,1,1,6,4.5,1.5,1.5,0,0,1,4.5,6Z" />
    <path class="light-defaultgrey" d="M13.937,10.633a3.271,3.271,0,0,0-.1-.784l1.242-.514-.383-.924-1.244.515A3.314,3.314,0,0,0,12.34,7.819l.515-1.245-.923-.383-.515,1.242a3.007,3.007,0,0,0-1.568,0L9.335,6.191l-.924.383.515,1.245A3.311,3.311,0,0,0,7.819,8.926L6.575,8.411l-.383.924,1.241.514a3.007,3.007,0,0,0,0,1.568l-1.241.515.383.923,1.244-.515a3.314,3.314,0,0,0,1.107,1.108l-.515,1.243.924.383.514-1.241a2.983,2.983,0,0,0,1.569,0l.514,1.241.923-.383-.515-1.243a3.307,3.307,0,0,0,1.108-1.108l1.244.515.383-.923-1.242-.515A3.278,3.278,0,0,0,13.937,10.633Zm-5.608,0a2.3,2.3,0,1,1,2.3,2.305A2.307,2.307,0,0,1,8.329,10.633Z" />
  </g>
</svg>
