<svg xmlns="http://www.w3.org/2000/svg" viewBox="0 0 16 16">
  <defs>
    <style>.canvas{fill: none; opacity: 0;}.light-defaultgrey{fill: #212121; opacity: 1;}.light-green{fill: #1f801f; opacity: 1;}.white{fill: #ffffff; opacity: 1;}</style>
  </defs>
  <title>IconLightProcessOk</title>
  <g id="canvas">
    <path class="canvas" d="M16,0V16H0V0Z" />
  </g>
  <g id="level-1">
    <path class="light-defaultgrey" d="M7.074,13.448l.515,1.243-.924.383-.514-1.241a2.983,2.983,0,0,1-1.569,0l-.514,1.241-.923-.383.515-1.243A3.3,3.3,0,0,1,2.552,12.34l-1.244.515-.383-.923,1.242-.515a3.064,3.064,0,0,1,0-1.568L.921,9.335,1.3,8.411l1.244.515A3.316,3.316,0,0,1,3.66,7.819L3.145,6.574l.923-.383.515,1.242a3,3,0,0,1,1.568,0l.514-1.242.924.383L7.074,7.819a3.312,3.312,0,0,1,1.06,1.047,4.907,4.907,0,0,0-.618.961,2.3,2.3,0,1,0-.493,2.4,5,5,0,0,0,.183,1.115C7.16,13.376,7.122,13.419,7.074,13.448Z" />
    <path class="light-defaultgrey" d="M9.416,5.876l-.745.745.707.707.745-.745A2.464,2.464,0,0,0,11,6.949V7.1A4.988,4.988,0,0,1,12,7V6.949a2.464,2.464,0,0,0,.877-.366l.693.693.079.025.68-.68-.745-.745A2.476,2.476,0,0,0,13.949,5H15V4H13.949a2.476,2.476,0,0,0-.365-.876l.745-.745-.707-.707-.745.745A2.464,2.464,0,0,0,12,2.051V1H11V2.051a2.464,2.464,0,0,0-.877.366l-.745-.745-.707.707.745.745A2.476,2.476,0,0,0,9.051,4H8V5H9.051A2.476,2.476,0,0,0,9.416,5.876ZM11.5,3A1.5,1.5,0,1,1,10,4.5,1.5,1.5,0,0,1,11.5,3Z" />
    <path class="light-green" d="M16,12a4,4,0,1,1-4-4A4,4,0,0,1,16,12Z" />
    <path class="white" d="M14.208,11.171l-2.365,2.365-.711,0L9.792,12.16l.715-.7.987,1.011L13.5,10.464Z" />
  </g>
</svg>
