<svg xmlns="http://www.w3.org/2000/svg" viewBox="0 0 16 16">
  <defs>
    <style>.canvas{fill: none; opacity: 0;}.light-blue-10{fill: #005dba; opacity: 0.1;}.light-blue{fill: #005dba; opacity: 1;}</style>
  </defs>
  <title>StatusHelpOutline</title>
  <g id="canvas" class="canvas">
    <path class="canvas" d="M16,16H0V0H16Z" />
  </g>
  <g id="level-1">
    <path class="light-blue-10" d="M13.5,7.5a6,6,0,1,1-6-6A6,6,0,0,1,13.5,7.5Z" />
    <path class="light-blue" d="M7.5,1A6.5,6.5,0,1,0,14,7.5,6.508,6.508,0,0,0,7.5,1Zm0,12A5.5,5.5,0,1,1,13,7.5,5.506,5.506,0,0,1,7.5,13Z" />
    <path class="light-blue" d="M7.5,3.781A2.205,2.205,0,0,1,9.688,5.969c0,1.054-.7,1.5-1.3,2.115a1.518,1.518,0,0,0-.454,1.385H7.062a2.814,2.814,0,0,1,.13-1.153,2.794,2.794,0,0,1,.746-1,3.581,3.581,0,0,0,.745-.83,1.275,1.275,0,0,0-.67-1.729,1.313,1.313,0,0,0-1.825,1.21H5.312A2.195,2.195,0,0,1,7.5,3.781ZM8.25,11.5a.75.75,0,1,1-.75-.75A.75.75,0,0,1,8.25,11.5Z" />
  </g>
</svg>
