<svg xmlns="http://www.w3.org/2000/svg" viewBox="0 0 16 16">
  <defs>
    <style>.canvas{fill: none; opacity: 0;}.light-red{fill: #c50b17; opacity: 1;}.white{fill: #ffffff; opacity: 1;}</style>
  </defs>
  <title>IconLightStatusSecurityCritical</title>
  <g id="canvas" class="canvas">
    <path class="canvas" d="M16,16H0V0H16Z" />
  </g>
  <g id="level-1">
    <path class="light-red" d="M7.754,14.713H7.246q-.756-.445-1.505-.953C3.083,11.958.987,9.512,1,6.3V3.1l.5-.5a6.869,6.869,0,0,0,2.684-.42,16.06,16.06,0,0,1,2-.992,4.583,4.583,0,0,1,2.637,0A5.108,5.108,0,0,1,10,1.752a6.082,6.082,0,0,0,3.5.848l.5.5V6.3a7.231,7.231,0,0,1-.956,3.608A13.9,13.9,0,0,1,7.754,14.713Z" />
    <path class="white" d="M8.207,7.5l2.4,2.4L9.9,10.6l-2.4-2.4L5.1,10.6,4.4,9.9l2.4-2.4L4.4,5.1,5.1,4.4l2.4,2.4L9.9,4.4,10.6,5.1Z" />
  </g>
</svg>
