<svg xmlns="http://www.w3.org/2000/svg" viewBox="0 0 16 16">
  <defs>
    <style>.canvas{fill: none; opacity: 0;}.light-green{fill: #1f801f; opacity: 1;}.white{fill: #ffffff; opacity: 1;}</style>
  </defs>
  <title>IconLightStatusSecurityOK</title>
  <g id="canvas" class="canvas">
    <path class="canvas" d="M16,16H0V0H16Z" />
  </g>
  <g id="level-1">
    <path class="light-green" d="M7.754,14.713H7.246q-.756-.445-1.505-.953C3.083,11.958.987,9.512,1,6.3V3.1l.5-.5a6.869,6.869,0,0,0,2.684-.42,16.06,16.06,0,0,1,2-.992,4.583,4.583,0,0,1,2.637,0A5.108,5.108,0,0,1,10,1.752a6.082,6.082,0,0,0,3.5.848l.5.5V6.3a7.231,7.231,0,0,1-.956,3.608A13.9,13.9,0,0,1,7.754,14.713Z" />
    <path class="white" d="M11.854,6.1l-4.5,4.5H6.646l-2.5-2.5L4.854,7.4,7,9.543,11.146,5.4Z" />
  </g>
</svg>
