<svg xmlns="http://www.w3.org/2000/svg" viewBox="0 0 16 16">
  <defs>
    <style>.canvas{fill: none; opacity: 0;}.light-red-10{fill: #c50b17; opacity: 0.1;}.light-red{fill: #c50b17; opacity: 1;}</style>
  </defs>
  <title>StatusSuppressedOutline</title>
  <g id="canvas">
    <path class="canvas" d="M16,16H0V0H16Z" />
  </g>
  <g id="level-1">
    <path class="light-red-10" d="M13.5,7.5a6,6,0,1,1-6-6A6.006,6.006,0,0,1,13.5,7.5Z" />
    <path class="light-red" d="M7.5,14A6.5,6.5,0,1,1,14,7.5,6.508,6.508,0,0,1,7.5,14Zm0-12A5.5,5.5,0,1,0,13,7.5,5.507,5.507,0,0,0,7.5,2Z" />
    <path class="light-red" d="M10.854,8.354l-3,3H7.146l-3-3,.708-.708L7,9.793V4H8V9.793l2.146-2.147Z" />
  </g>
</svg>
