<svg xmlns="http://www.w3.org/2000/svg" viewBox="0 0 16 16">
  <defs>
    <style>.canvas{fill: none; opacity: 0;}.light-blue{fill: #005dba; opacity: 1;}.white{fill: #ffffff; opacity: 1;}</style>
  </defs>
  <title>VerifiedPublisher</title>
  <g id="canvas">
    <path class="canvas" d="M16,0V16H0V0Z" />
  </g>
  <g id="level-1">
    <path class="light-blue" d="M15.383,9.211a1.351,1.351,0,0,1,.224,1.279c-.3.944-1.213.893-2.418,1.284.027.712.058.973.07,1.613a1.349,1.349,0,0,1-1.826,1.257L9.984,14.1l-.851,1.289a1.359,1.359,0,0,1-2.266,0L6.016,14.1l-1.446.546a1.343,1.343,0,0,1-1.718-.734c-.167-.4-.119-.761-.04-2.136a7.7,7.7,0,0,1-1.9-.6A1.342,1.342,0,0,1,.4,10.489C.092,9.532.741,9.093,1.586,8L.617,6.789A1.356,1.356,0,0,1,.588,5.125c.372-.492.723-.469,2.218-.9-.028-.752-.058-.977-.07-1.618a1.345,1.345,0,0,1,1.35-1.343c.415,0,.578.15,1.93.637C6.825.74,6.881.412,7.352.164A1.38,1.38,0,0,1,8.641.156c.477.253.536.587,1.343,1.744,1.373-.493,1.51-.632,1.922-.632a1.33,1.33,0,0,1,1.242.82c.168.4.117.769.04,2.141a7.776,7.776,0,0,1,1.9.6,1.359,1.359,0,0,1,.29,1.964L14.414,8Z" />
    <path class="white" d="M11.53,6.355,7.182,10.7,4.47,7.991,5.53,6.935,7.182,8.584,10.47,5.3Z" />
  </g>
</svg>
