<?xml version="1.0" encoding="UTF-8"?>
<svg width="600" height="181.2" version="1.1" viewBox="0 0 600 181.2" xmlns="http://www.w3.org/2000/svg" xmlns:xlink="http://www.w3.org/1999/xlink">
  <defs>
    <linearGradient id="b" x2="100%">
      <stop stop-color="#2b5797" offset="0%"/>
      <stop stop-color="#2d89ef" offset="50%"/>
      <stop stop-color="#2b5797" offset="100%"/>
    </linearGradient>
  </defs>
  <rect width="600" height="181.2" fill="url(#b)"/>
  <path d="m37.409 64.559 29.297-3.2552v27.669h-29.297zm29.297 27.669v27.669l-29.297-4.069v-23.6zm3.2552-31.738 38.248-5.6966v34.179h-38.248zm38.248 31.738v34.179l-38.248-5.6966v-28.483z" fill="#fff"/>
  <g transform="scale(1.2)" fill="#fff" aria-label="Windows Update">
    <path d="m108.61 60.363h4.7812l7.3594 29.578 7.3359-29.578h5.3203l7.3594 29.578 7.3359-29.578h4.8047l-8.7891 34.992h-5.9531l-7.3828-30.375-7.4531 30.375h-5.9531z"/>
    <path d="m154.95 69.105h4.3125v26.25h-4.3125zm0-10.219h4.3125v5.4609h-4.3125z"/>
    <path d="m187.11 79.511v15.844h-4.3125v-15.703q0-3.7266-1.4531-5.5781-1.4531-1.8516-4.3594-1.8516-3.4922 0-5.5078 2.2266-2.0156 2.2266-2.0156 6.0703v14.836h-4.3359v-26.25h4.3359v4.0781q1.5469-2.3672 3.6328-3.5391 2.1094-1.1719 4.8516-1.1719 4.5234 0 6.8438 2.8125 2.3203 2.7891 2.3203 8.2266z"/>
    <path id="a" d="m209.98 73.089v-14.203h4.3125v36.469h-4.3125v-3.9375q-1.3594 2.3438-3.4453 3.4922-2.0625 1.125-4.9688 1.125-4.7578 0-7.7578-3.7969-2.9766-3.7969-2.9766-9.9844t2.9766-9.9844q3-3.7969 7.7578-3.7969 2.9062 0 4.9688 1.1484 2.0859 1.125 3.4453 3.4688zm-14.695 9.1641q0 4.7578 1.9453 7.4766 1.9688 2.6953 5.3906 2.6953 3.4219 0 5.3906-2.6953 1.9688-2.7188 1.9688-7.4766 0-4.7578-1.9688-7.4531-1.9688-2.7188-5.3906-2.7188-3.4219 0-5.3906 2.7188-1.9453 2.6953-1.9453 7.4531z"/>
    <path d="m230.35 72.128q-3.4688 0-5.4844 2.7188-2.0156 2.6953-2.0156 7.4062 0 4.7109 1.9922 7.4297 2.0156 2.6953 5.5078 2.6953 3.4453 0 5.4609-2.7188 2.0156-2.7188 2.0156-7.4062 0-4.6641-2.0156-7.3828-2.0156-2.7422-5.4609-2.7422zm0-3.6562q5.625 0 8.8359 3.6562 3.2109 3.6562 3.2109 10.125 0 6.4453-3.2109 10.125-3.2109 3.6562-8.8359 3.6562-5.6484 0-8.8594-3.6562-3.1875-3.6797-3.1875-10.125 0-6.4688 3.1875-10.125 3.2109-3.6562 8.8594-3.6562z"/>
    <path d="m244.04 69.105h4.3125l5.3906 20.484 5.3672-20.484h5.0859l5.3906 20.484 5.3672-20.484h4.3125l-6.8672 26.25h-5.0859l-5.6484-21.516-5.6719 21.516h-5.0859z"/>
    <path d="m299.54 69.878v4.0781q-1.8281-0.9375-3.7969-1.4062t-4.0781-0.46875q-3.2109 0-4.8281 0.98438-1.5938 0.98438-1.5938 2.9531 0 1.5 1.1484 2.3672 1.1484 0.84375 4.6172 1.6172l1.4766 0.32812q4.5938 0.98438 6.5156 2.7891 1.9453 1.7812 1.9453 4.9922 0 3.6562-2.9062 5.7891-2.8828 2.1328-7.9453 2.1328-2.1094 0-4.4062-0.42188-2.2734-0.39844-4.8047-1.2188v-4.4531q2.3906 1.2422 4.7109 1.875 2.3203 0.60938 4.5938 0.60938 3.0469 0 4.6875-1.0312 1.6406-1.0547 1.6406-2.9531 0-1.7578-1.1953-2.6953-1.1719-0.9375-5.1797-1.8047l-1.5-0.35156q-4.0078-0.84375-5.7891-2.5781-1.7812-1.7578-1.7812-4.8047 0-3.7031 2.625-5.7188t7.4531-2.0156q2.3906 0 4.5 0.35156 2.1094 0.35156 3.8906 1.0547z"/>
    <path d="m316.72 60.363h4.7578v21.258q0 5.625 2.0391 8.1094 2.0391 2.4609 6.6094 2.4609 4.5469 0 6.5859-2.4609 2.0391-2.4844 2.0391-8.1094v-21.258h4.7578v21.844q0 6.8438-3.3984 10.336-3.375 3.4922-9.9844 3.4922-6.6328 0-10.031-3.4922-3.375-3.4922-3.375-10.336z"/>
    <path d="m353.37 91.417v13.922h-4.3359v-36.234h4.3359v3.9844q1.3594-2.3438 3.4219-3.4688 2.0859-1.1484 4.9688-1.1484 4.7812 0 7.7578 3.7969 3 3.7969 3 9.9844t-3 9.9844q-2.9766 3.7969-7.7578 3.7969-2.8828 0-4.9688-1.125-2.0625-1.1484-3.4219-3.4922zm14.672-9.1641q0-4.7578-1.9688-7.4531-1.9453-2.7188-5.3672-2.7188-3.4219 0-5.3906 2.7188-1.9453 2.6953-1.9453 7.4531 0 4.7578 1.9453 7.4766 1.9688 2.6953 5.3906 2.6953 3.4219 0 5.3672-2.6953 1.9688-2.7188 1.9688-7.4766z"/>
    <use transform="translate(183.96)" width="100%" height="100%" xlink:href="#a"/>
    <path d="m416.07 82.159q-5.2266 0-7.2422 1.1953-2.0156 1.1953-2.0156 4.0781 0 2.2969 1.5 3.6562 1.5234 1.3359 4.125 1.3359 3.5859 0 5.7422-2.5312 2.1797-2.5547 2.1797-6.7734v-0.96094zm8.6016-1.7812v14.977h-4.3125v-3.9844q-1.4766 2.3906-3.6797 3.5391-2.2031 1.125-5.3906 1.125-4.0312 0-6.4219-2.25-2.3672-2.2734-2.3672-6.0703 0-4.4297 2.9531-6.6797 2.9766-2.25 8.8594-2.25h6.0469v-0.42188q0-2.9766-1.9688-4.5938-1.9453-1.6406-5.4844-1.6406-2.25 0-4.3828 0.53906-2.1328 0.53906-4.1016 1.6172v-3.9844q2.3672-0.91406 4.5938-1.3594 2.2266-0.46875 4.3359-0.46875 5.6953 0 8.5078 2.9531t2.8125 8.9531z"/>
    <path d="m434.82 61.652v7.4531h8.8828v3.3516h-8.8828v14.25q0 3.2109 0.86719 4.125 0.89062 0.91406 3.5859 0.91406h4.4297v3.6094h-4.4297q-4.9922 0-6.8906-1.8516-1.8984-1.875-1.8984-6.7969v-14.25h-3.1641v-3.3516h3.1641v-7.4531z"/>
    <path d="m468.83 81.152v2.1094h-19.828q0.28125 4.4531 2.6719 6.7969 2.4141 2.3203 6.7031 2.3203 2.4844 0 4.8047-0.60938 2.3438-0.60938 4.6406-1.8281v4.0781q-2.3203 0.98438-4.7578 1.5t-4.9453 0.51562q-6.2812 0-9.9609-3.6562-3.6562-3.6562-3.6562-9.8906 0-6.4453 3.4688-10.219 3.4922-3.7969 9.3984-3.7969 5.2969 0 8.3672 3.4219 3.0938 3.3984 3.0938 9.2578zm-4.3125-1.2656q-0.0469-3.5391-1.9922-5.6484-1.9219-2.1094-5.1094-2.1094-3.6094 0-5.7891 2.0391-2.1562 2.0391-2.4844 5.7422z"/>
  </g>
</svg>
