<?xml version="1.0" encoding="UTF-8"?>
<svg width="51px" height="51px" viewBox="0 0 51 51" version="1.1" xmlns="http://www.w3.org/2000/svg" xmlns:xlink="http://www.w3.org/1999/xlink">
    <title>download</title>
    <defs>
        <linearGradient x1="50%" y1="0%" x2="50%" y2="100%" id="linearGradient-1">
            <stop stop-color="#D0768C" offset="0%"></stop>
            <stop stop-color="#BF46A5" offset="10.5216073%"></stop>
            <stop stop-color="#7029B2" offset="49.2239572%"></stop>
            <stop stop-color="#341D8C" offset="100%"></stop>
        </linearGradient>
    </defs>
    <g id="Page-1" stroke="none" stroke-width="1" fill="none" fill-rule="evenodd">
        <path d="M25.5,0.5 C39.3071187,0.5 50.5,11.6928813 50.5,25.5 C50.5,39.3071187 39.3071187,50.5 25.5,50.5 C11.6928813,50.5 0.5,39.3071187 0.5,25.5 C0.5,11.6928813 11.6928813,0.5 25.5,0.5 Z M25.5,3.5 C13.3497355,3.5 3.5,13.3497355 3.5,25.5 C3.5,37.6502645 13.3497355,47.5 25.5,47.5 C37.6502645,47.5 47.5,37.6502645 47.5,25.5 C47.5,13.3497355 37.6502645,3.5 25.5,3.5 Z M25.5,13.5 C26.6045695,13.5 27.5,14.3954305 27.5,15.5 L27.5,30.6994942 L31.2852806,26.9142136 C32.0663292,26.133165 33.3326592,26.133165 34.1137077,26.9142136 C34.8947563,27.6952621 34.8947563,28.9615921 34.1137077,29.7426407 L27.0426399,36.8137085 C26.9641106,36.8922378 26.8806757,36.9628714 26.7933215,37.0256095 C26.4446208,37.3215108 25.9931546,37.5 25.5,37.5 C24.9222325,37.5 24.4016859,37.2550079 24.0365778,36.8632412 L24.0107634,36.8387483 L24.0107634,36.8387483 L16.9142136,29.7426407 C16.133165,28.9615921 16.133165,27.6952621 16.9142136,26.9142136 C17.6952621,26.133165 18.9615921,26.133165 19.7426407,26.9142136 L23.5,30.6715729 L23.5,15.5 C23.5,14.3954305 24.3954305,13.5 25.5,13.5 Z" id="download" fill="url(#linearGradient-1)" fill-rule="nonzero"></path>
    </g>
</svg>