<svg xmlns="http://www.w3.org/2000/svg" viewBox="0 0 16 16">
  <defs>
    <style>.canvas{fill: none; opacity: 0;}.light-lightblue{fill: #0077a0; opacity: 1;}.light-lightblue-10{fill: #0077a0; opacity: 0.1;}.light-shadow{fill: #000000; opacity: 0.1;}.light-blue{fill: #005dba; opacity: 1;}.cls-1{opacity:0.1;}.cls-2{opacity:0.75;}</style>
  </defs>
  <title>IconLightCloudServiceBus</title>
  <g id="canvas" class="canvas">
    <path class="canvas" d="M16,16H0V0H16Z" />
  </g>
  <g id="level-2">
    <g class="cls-1">
      <path class="light-lightblue" d="M9.715,4.3l.737-.738A4.067,4.067,0,0,1,12.383,6.5a2.652,2.652,0,0,1,1.551.572l-.692.716A1.687,1.687,0,0,0,12.3,7.5h-.859V7.062A3.058,3.058,0,0,0,9.715,4.3Zm-3,7.259L6.973,12H4.561c-.116,0-.226-.024-.339-.035l-.99-1.351A2.521,2.521,0,0,0,4.561,11H6.39l.328.563-.328-.558Z" />
    </g>
    <g class="cls-2">
      <path class="light-lightblue-10" d="M14.518,9.25A2.239,2.239,0,0,1,12.3,11.5H4.562a3.125,3.125,0,0,1,0-6.25,2.939,2.939,0,0,1,.8.109A3.514,3.514,0,0,1,8.43,3.5a3.446,3.446,0,0,1,1.655.422A3.571,3.571,0,0,1,11.937,7H12.3A2.239,2.239,0,0,1,14.518,9.25Z" />
      <path class="light-lightblue" d="M15,9.25A2.73,2.73,0,0,1,12.3,12H6.976l-.258-.437L6.39,11H12.3a1.735,1.735,0,0,0,1.72-1.75,1.755,1.755,0,0,0-.776-1.461l.692-.716A2.757,2.757,0,0,1,15,9.25ZM3.232,10.614l.99,1.351A3.619,3.619,0,0,1,4.561,4.75a3.471,3.471,0,0,1,.567.047A3.986,3.986,0,0,1,8.43,3a3.909,3.909,0,0,1,2.022.566L9.715,4.3A2.925,2.925,0,0,0,8.43,4,3.005,3.005,0,0,0,5.622,5.988,2.521,2.521,0,0,0,4.561,5.75,2.595,2.595,0,0,0,2.075,9.034L2.06,9.015l.015.019A2.612,2.612,0,0,0,3.232,10.614Z" />
    </g>
  </g>
  <g id="level-1">
    <path class="light-shadow" d="M4.521,10H9v1H4.521l1.091,1.09-.707.707L2.961,10.85v-.707L4.905,8.2l.707.707Zm8.518-2.854V7.85L11.1,9.794l-.707-.707L11.479,8H7V7h4.479L10.388,5.905,11.1,5.2Z" />
    <path class="light-blue" d="M4.521,9H9v1H4.521l1.091,1.09-.707.707L2.961,9.85V9.143L4.905,7.2l.707.707Zm8.518-2.854V6.85L11.1,8.794l-.707-.707L11.479,7H7V6h4.479L10.388,4.905,11.1,4.2Z" />
  </g>
</svg>
