<svg xmlns="http://www.w3.org/2000/svg" viewBox="0 0 16 16">
  <defs>
    <style>.canvas{fill: none; opacity: 0;}.light-red-10{fill: #c50b17; opacity: 0.1;}.light-red{fill: #c50b17; opacity: 1;}.light-defaultgrey{fill: #212121; opacity: 1;}.cls-1{opacity:0.75;}</style>
  </defs>
  <title>IconLightCPPATLApplication</title>
  <g id="canvas" class="canvas">
    <path class="canvas" d="M16,16H0V0H16Z" />
  </g>
  <g id="level-1">
    <g class="cls-1">
      <path class="light-red-10" d="M14.5,5v8H11V10H1.5V5Z" />
      <path class="light-red" d="M15,5.5v8l-.5.5H11V13h3V6H2v4H1V5.5L1.5,5h13Z" />
    </g>
    <path class="light-red-10" d="M14.5,2.5v3H1.5v-3Z" />
    <path class="light-red" d="M14.5,6H1.5L1,5.5v-3L1.5,2h13l.5.5v3ZM2,5H14V3H2Z" />
    <path class="light-defaultgrey" d="M4.787,16H3.9l-.441-1.248H1.526L1.1,16H.213l1.836-4.9h.916ZM3.238,14.09l-.68-1.955a2.492,2.492,0,0,1-.065-.309H2.479a1.97,1.97,0,0,1-.068.309L1.738,14.09Z" />
    <path class="light-defaultgrey" d="M8.313,11.789H6.905V16H6.092V11.789h-1.4V11.1H8.313Z" />
    <path class="light-defaultgrey" d="M11.714,16H9V11.1h.813v4.214h1.9Z" />
  </g>
</svg>
