<svg xmlns="http://www.w3.org/2000/svg" viewBox="0 0 16 16">
  <defs>
    <style>.canvas{fill: none; opacity: 0;}.light-green{fill: #1f801f; opacity: 1;}</style>
  </defs>
  <title>IconLightCSWorkflowManagerActivity</title>
  <g id="canvas" class="canvas">
    <path class="canvas" d="M16,16H0V0H16Z" />
  </g>
  <g id="level-1">
    <path class="light-green" d="M3.7,3.7l-.717-.717A6.717,6.717,0,0,1,7,1.046V2.07A5.693,5.693,0,0,0,3.7,3.7ZM14,2.5V5.209a6.769,6.769,0,0,0-6-4.19v1A5.751,5.751,0,0,1,13.207,6H10.5V7h4l.5-.5v-4ZM3.058,4.472l-.729-.728A6.717,6.717,0,0,0,1.044,7H2.055A5.693,5.693,0,0,1,3.058,4.472Zm9.884,7.056.729.728A6.717,6.717,0,0,0,14.956,9H13.945A5.693,5.693,0,0,1,12.942,11.528ZM2.793,10H5.5V9h-4L1,9.5v4H2V10.791a6.769,6.769,0,0,0,6,4.19v-1A5.751,5.751,0,0,1,2.793,10ZM9,13.93v1.024a6.717,6.717,0,0,0,4.015-1.939L12.3,12.3A5.693,5.693,0,0,1,9,13.93Z" />
  </g>
</svg>
