<svg xmlns="http://www.w3.org/2000/svg" viewBox="0 0 16 16">
  <defs>
    <style>.canvas{fill: none; opacity: 0;}.light-lightblue-10{fill: #0077a0; opacity: 0.1;}.light-lightblue{fill: #0077a0; opacity: 1;}.light-blue{fill: #005dba; opacity: 1;}.white{fill: #ffffff; opacity: 1;}</style>
  </defs>
  <title>IconLightDatabasePaused</title>
  <g id="canvas" class="canvas">
    <path class="canvas" d="M16,16H0V0H16Z" />
  </g>
  <g id="level-1">
    <path class="light-lightblue-10" d="M7.048,12.479c-.181.01-.36.021-.548.021-2.209,0-4-.671-4-1.5V2.97c0-.828,1.791-1.5,4-1.5s4,.672,4,1.5V7.255A4.991,4.991,0,0,0,7,12C7,12.164,7.033,12.319,7.048,12.479Z" />
    <path class="light-lightblue" d="M7,12l0-.019c-.165.008-.324.019-.5.019C4.227,12,3,11.29,3,11V4.261a7.863,7.863,0,0,0,3.5.709A7.863,7.863,0,0,0,10,4.261V7.424A4.91,4.91,0,0,1,11,7.1V2.97c0-2.627-9-2.627-9,0V11c0,1.314,2.264,2,4.5,2,.2,0,.4-.012.6-.023A4.988,4.988,0,0,1,7,12ZM6.5,1.97c2.273,0,3.5.71,3.5,1s-1.227,1-3.5,1S3,3.26,3,2.97,4.227,1.97,6.5,1.97Z" />
    <path class="light-blue" d="M12,8a4,4,0,1,0,4,4A4,4,0,0,0,12,8Z" />
    <path class="white" d="M10.5,10h1v4h-1Zm2,0v4h1V10Z" />
  </g>
</svg>
