<svg xmlns="http://www.w3.org/2000/svg" viewBox="0 0 16 16">
  <defs>
    <style>.canvas{fill: none; opacity: 0;}.light-lightblue-10{fill: #0077a0; opacity: 0.1;}.light-lightblue{fill: #0077a0; opacity: 1;}.light-defaultgrey-10{fill: #212121; opacity: 0.1;}.light-defaultgrey{fill: #212121; opacity: 1;}</style>
  </defs>
  <title>IconLightDatabaseRole</title>
  <g id="canvas" class="canvas">
    <path class="canvas" d="M16,16H0V0H16Z" />
  </g>
  <g id="level-1">
    <path class="light-lightblue-10" d="M14.5,2.97V11c0,.828-1.791,1.5-4,1.5a14.843,14.843,0,0,1-2.8-.432,6.052,6.052,0,0,1-1.2-.644V9.916a2.225,2.225,0,0,0,0-3.332V2.97c0-.828,1.791-1.5,4-1.5S14.5,2.142,14.5,2.97Z" />
    <path class="light-lightblue" d="M6,2.97V6.7a2.738,2.738,0,0,1,1,.679V4.261a7.863,7.863,0,0,0,3.5.709A7.863,7.863,0,0,0,14,4.261V11c0,.29-1.227,1-3.5,1-2.119,0-3.314-.613-3.469-.931a2.893,2.893,0,0,1-.33.325A4.054,4.054,0,0,1,8.3,12.756,9.879,9.879,0,0,0,10.5,13c2.236,0,4.5-.686,4.5-2V2.97C15,.343,6,.343,6,2.97Zm4.5,1c-2.273,0-3.5-.71-3.5-1s1.227-1,3.5-1,3.5.71,3.5,1S12.773,3.97,10.5,3.97Z" />
    <path class="light-defaultgrey-10" d="M1.5,14a3.5,3.5,0,0,1,7,0ZM7.25,8.25A2.25,2.25,0,1,1,5,6,2.25,2.25,0,0,1,7.25,8.25Z" />
    <path class="light-defaultgrey" d="M6.7,10.394a2.75,2.75,0,1,0-3.4,0A4,4,0,0,0,1,14H2a3,3,0,0,1,6,0H9A4,4,0,0,0,6.7,10.394ZM3.25,8.25A1.75,1.75,0,1,1,5,10,1.752,1.752,0,0,1,3.25,8.25Z" />
  </g>
</svg>
