<svg xmlns="http://www.w3.org/2000/svg" viewBox="0 0 16 16">
  <defs>
    <style>.canvas{fill: none; opacity: 0;}.light-lightblue-10{fill: #0077a0; opacity: 0.1;}.light-lightblue{fill: #0077a0; opacity: 1;}.light-blue{fill: #005dba; opacity: 1;}</style>
  </defs>
  <title>IconLightDatabaseSource</title>
  <g id="canvas" class="canvas">
    <path class="canvas" d="M16,16H0V0H16Z" />
  </g>
  <g id="level-1">
    <path class="light-lightblue-10" d="M10.5,10v2c0,.828-1.791,1.5-4,1.5s-4-.672-4-1.5V3.97c0-.828,1.791-1.5,4-1.5s4,.672,4,1.5V7H11v3Z" />
    <path class="light-lightblue" d="M2,3.97V12c0,1.313,2.264,2,4.5,2s4.5-.687,4.5-2V10H10v2c0,.29-1.227,1-3.5,1S3,12.29,3,12V5.261a7.863,7.863,0,0,0,3.5.709A7.863,7.863,0,0,0,10,5.261V7h1V3.97C11,1.343,2,1.343,2,3.97Zm4.5,1c-2.273,0-3.5-.71-3.5-1s1.227-1,3.5-1,3.5.71,3.5,1S8.773,4.97,6.5,4.97Z" />
    <path class="light-blue" d="M9,9V8h5.293L12.672,6.379l.707-.707,2.475,2.474v.708l-2.475,2.474-.707-.707L14.293,9Z" />
  </g>
</svg>
