<svg xmlns="http://www.w3.org/2000/svg" viewBox="0 0 16 16">
  <defs>
    <style>.canvas{fill: none; opacity: 0;}.light-lightblue-10{fill: #0077a0; opacity: 0.1;}.light-lightblue{fill: #0077a0; opacity: 1;}.light-red{fill: #c50b17; opacity: 1;}.white{fill: #ffffff; opacity: 1;}.cls-1{opacity:0.75;}</style>
  </defs>
  <title>DatabaseGroupError</title>
  <g id="canvas">
    <path class="canvas" d="M16,16H0V0H16Z" />
  </g>
  <g id="level-1">
    <g class="cls-1">
      <path class="light-lightblue-10" d="M6.5,3.049V3c0-.828,1.791-1.5,4-1.5s4,.672,4,1.5V7.7A4.877,4.877,0,0,0,10,7.424V4.969C10,3.853,8.37,3.216,6.5,3.049Z" />
      <path class="light-lightblue" d="M7.05,3.112A10.423,10.423,0,0,0,6,3.018V2.969c0-2.625,9-2.625,9,0V8.026a4.967,4.967,0,0,0-1-.6V4.3a7.913,7.913,0,0,1-3.5.7c-.168,0-.333-.015-.5-.023V4.969a1.318,1.318,0,0,0-.619-1.038A9.461,9.461,0,0,0,10.5,4C12.773,4,14,3.29,14,3V2.969c0-.29-1.227-1-3.5-1s-3.5.71-3.5,1V3A.221.221,0,0,0,7.05,3.112Z" />
    </g>
    <path class="light-lightblue-10" d="M7.574,14.277A9.363,9.363,0,0,1,5.5,14.5c-2.209,0-4-.672-4-1.5V4.97c0-.828,1.791-1.5,4-1.5s4,.672,4,1.5V7.7a4.909,4.909,0,0,0-1.926,6.581Z" />
    <path class="light-lightblue" d="M7.344,13.785A8.808,8.808,0,0,1,5.5,13.97c-2.273,0-3.5-.71-3.5-1V6.261a7.863,7.863,0,0,0,3.5.709A7.863,7.863,0,0,0,9,6.261V8.026a4.967,4.967,0,0,1,1-.6V4.97c0-2.627-9-2.627-9,0v8c0,1.314,2.264,2,4.5,2a9.848,9.848,0,0,0,2.307-.265A5.016,5.016,0,0,1,7.344,13.785ZM5.5,3.97c2.273,0,3.5.71,3.5,1s-1.227,1-3.5,1S2,5.26,2,4.97,3.227,3.97,5.5,3.97Z" />
    <path class="light-red" d="M12,8a4,4,0,1,0,4,4A4,4,0,0,0,12,8Z" />
    <path class="white" d="M12.707,12l1.147,1.146-.708.708L12,12.707l-1.146,1.147-.708-.708L11.293,12l-1.147-1.146.708-.708L12,11.293l1.146-1.147.708.708Z" />
  </g>
</svg>
