<svg xmlns="http://www.w3.org/2000/svg" viewBox="0 0 16 16">
  <defs>
    <style>.canvas{fill: none; opacity: 0;}.light-lightblue-10{fill: #0077a0; opacity: 0.1;}.light-lightblue{fill: #0077a0; opacity: 1;}.light-blue{fill: #005dba; opacity: 1;}</style>
  </defs>
  <title>DatabaseModelRefresh</title>
  <g id="canvas">
    <path class="canvas" d="M16,16H0V0H16Z" />
  </g>
  <g id="level-1">
    <path class="light-lightblue-10" d="M14.5,4.97V13c0,.828-1.791,1.5-4,1.5s-4-.672-4-1.5V6.84a4.454,4.454,0,0,0,.9-1.088l.5-.865-.983-.57A6.425,6.425,0,0,1,10.5,3.47C12.709,3.47,14.5,4.142,14.5,4.97Z" />
    <path class="light-lightblue" d="M15,4.97V13c0,1.313-2.264,2-4.5,2S6,14.313,6,13V7.228A4.49,4.49,0,0,0,7,6.32V13c0,.29,1.227,1,3.5,1s3.5-.71,3.5-1V6.261a7.863,7.863,0,0,1-3.5.709,7.916,7.916,0,0,1-3.462-.693A4.536,4.536,0,0,0,7.4,5.752l.18-.309A7.075,7.075,0,0,0,10.5,5.97c2.273,0,3.5-.71,3.5-1s-1.227-1-3.5-1a6.554,6.554,0,0,0-3.108.624l-.934-.541c.021-.019.048-.035.07-.053h.386l.515-.515C9.967,2.511,15,3.005,15,4.97Z" />
    <path class="light-blue" d="M3.5,0A3.5,3.5,0,0,1,6,1.06V0H7V2.5L6.5,3H4V2H5.5a2.5,2.5,0,1,0,.167,2.75l.865.5A3.5,3.5,0,1,1,3.5,0Z" />
  </g>
</svg>
