<svg xmlns="http://www.w3.org/2000/svg" viewBox="0 0 16 16">
  <defs>
    <style>.canvas{fill: none; opacity: 0;}.light-blue-10{fill: #005dba; opacity: 0.1;}.light-blue{fill: #005dba; opacity: 1;}.light-green{fill: #1f801f; opacity: 1;}.white{fill: #ffffff; opacity: 1;}</style>
  </defs>
  <title>IconLightFormDigest</title>
  <g id="canvas">
    <path class="canvas" d="M16,16H0V0H16Z" />
  </g>
  <g id="level-1">
    <path class="light-blue-10" d="M8.379,14.475a6.495,6.495,0,1,1,6.112-6.653,2.139,2.139,0,0,1-.421-.2,4.217,4.217,0,0,0-.964-.456A3.715,3.715,0,0,0,12,7a3.777,3.777,0,0,0-1.1.162A3.527,3.527,0,0,0,9.95,7.6a2.225,2.225,0,0,1-.371.2,3.3,3.3,0,0,1-1.273.184H7.892L7,8.881v1.94A5.653,5.653,0,0,0,8.379,14.475Z" />
    <path class="light-blue" d="M8.029,14H8c-.126,0-.249-.011-.373-.019A9.487,9.487,0,0,1,6,11H7.01c0-.06-.012-.118-.012-.179V10H5.722a9.12,9.12,0,0,1,0-4h4.556a9.4,9.4,0,0,1,.183,1.326,3.635,3.635,0,0,1,.435-.164,3.709,3.709,0,0,1,.555-.122A10.136,10.136,0,0,0,11.3,6h2.35a5.849,5.849,0,0,1,.312,1.559c.033.02.08.043.108.061A2.209,2.209,0,0,0,15,7.942a7.02,7.02,0,1,0-6.195,7A7.373,7.373,0,0,1,8.029,14Zm5.159-9H11.053A10.489,10.489,0,0,0,9.789,2.273,6.02,6.02,0,0,1,13.188,5ZM8,2c.126,0,.249.011.373.019A9.478,9.478,0,0,1,10.005,5H6A9.479,9.479,0,0,1,7.628,2.019C7.752,2.011,7.874,2,8,2Zm-1.79.273A10.522,10.522,0,0,0,4.946,5H2.812A6.025,6.025,0,0,1,6.21,2.273ZM2,8a5.98,5.98,0,0,1,.35-2H4.7a10.2,10.2,0,0,0,0,4H2.35A5.98,5.98,0,0,1,2,8Zm.812,3H4.947a10.489,10.489,0,0,0,1.264,2.727A6.02,6.02,0,0,1,2.812,11Z" />
    <path class="light-green" d="M12.153,16h-.312q-.466-.274-.926-.586C9.279,14.305,7.99,12.8,8,10.825V9.3l.308-.308a4.234,4.234,0,0,0,1.651-.258,9.855,9.855,0,0,1,1.23-.61,2.823,2.823,0,0,1,1.622,0,3.165,3.165,0,0,1,.726.346,3.743,3.743,0,0,0,2.155.522L16,9.294v1.531a4.457,4.457,0,0,1-.588,2.22A8.549,8.549,0,0,1,12.153,16Z" />
    <path class="white" d="M14.206,11.171l-2.365,2.365-.711,0L9.791,12.16l.714-.7.987,1.011L13.5,10.464Z" />
  </g>
</svg>
