<svg xmlns="http://www.w3.org/2000/svg" width="56" height="56" viewBox="0 0 56 56">
  <defs>
    <linearGradient id="get-alert-go-down-a" x1="100%" x2="0%" y1="0%" y2="100%">
      <stop offset="0%" stop-color="#5055A5"/>
      <stop offset="100%" stop-color="#33377A"/>
    </linearGradient>
    <linearGradient id="get-alert-go-down-b" x1="-3.265%" y1="103.514%" y2="0%">
      <stop offset="0%" stop-color="#FFF" stop-opacity=".3"/>
      <stop offset="100%" stop-color="#FFF" stop-opacity=".2"/>
    </linearGradient>
  </defs>
  <g fill="none" fill-rule="evenodd">
    <path fill="url(#get-alert-go-down-a)" d="M28,56 C55.7841667,56 56,43.4641667 56,28 C56,12.5358333 55.7841667,0 28,0 C0.215833333,0 0,12.5358333 0,28 C0,43.4641667 0.215833333,56 28,56 Z"/>
    <g transform="translate(16 16)">
      <path fill="url(#get-alert-go-down-b)" d="M12,24 C23.9075,24 24,18.6275 24,12 C24,5.3725 23.9075,0 12,0 C0.0925,0 0,5.3725 0,12 C0,18.6275 0.0925,24 12,24 Z"/>
      <path fill="#FFF" fill-rule="nonzero" d="M7.05025253,7.53553391 C7.44077682,7.14500961 8.0739418,7.14500961 8.46446609,7.53553391 C8.85499039,7.9260582 8.85499039,8.55922318 8.46446609,8.94974747 C6.51184464,10.9023689 6.51184464,14.0681938 8.46446609,16.0208153 C10.4170876,17.9734367 13.5829124,17.9734367 15.5355339,16.0208153 C17.4881554,14.0681938 17.4881554,10.9023689 15.5355339,8.94974747 C15.1450096,8.55922318 15.1450096,7.9260582 15.5355339,7.53553391 C15.9260582,7.14500961 16.5592232,7.14500961 16.9497475,7.53553391 C19.6834175,10.2692039 19.6834175,14.7013588 16.9497475,17.4350288 C14.2160774,20.1686989 9.78392257,20.1686989 7.05025253,17.4350288 C4.31658249,14.7013588 4.31658249,10.2692039 7.05025253,7.53553391 Z M11,5 C11,4.44771525 11.4477153,4 12,4 C12.5522847,4 13,4.44771525 13,5 L13,10 C13,10.5522847 12.5522847,11 12,11 C11.4477153,11 11,10.5522847 11,10 L11,5 Z"/>
    </g>
  </g>
</svg>
