<svg width="66" height="66" viewBox="0 0 66 66" fill="none" xmlns="http://www.w3.org/2000/svg">
<path d="M32.8125 0C35.8431 0 38.7484 0.38737 41.5283 1.16211C44.3083 1.93685 46.9287 3.0306 49.3896 4.44336C51.8506 5.85612 54.0609 7.5651 56.0205 9.57031C57.9801 11.5755 59.6891 13.7972 61.1475 16.2354C62.6058 18.6735 63.7109 21.2826 64.4629 24.0625C65.2148 26.8424 65.6022 29.7591 65.625 32.8125C65.625 35.8431 65.2376 38.7484 64.4629 41.5283C63.6882 44.3083 62.5944 46.9287 61.1816 49.3896C59.7689 51.8506 58.0599 54.0609 56.0547 56.0205C54.0495 57.9801 51.8278 59.6891 49.3896 61.1475C46.9515 62.6058 44.3424 63.7109 41.5625 64.4629C38.7826 65.2148 35.8659 65.6022 32.8125 65.625C29.7819 65.625 26.8766 65.2376 24.0967 64.4629C21.3167 63.6882 18.6963 62.5944 16.2354 61.1816C13.7744 59.7689 11.5641 58.0599 9.60449 56.0547C7.64486 54.0495 5.93587 51.8278 4.47754 49.3896C3.01921 46.9515 1.91406 44.3424 1.16211 41.5625C0.410156 38.7826 0.0227865 35.8659 0 32.8125C0 29.7819 0.38737 26.8766 1.16211 24.0967C1.93685 21.3167 3.0306 18.6963 4.44336 16.2354C5.85612 13.7744 7.5651 11.5641 9.57031 9.60449C11.5755 7.64486 13.7972 5.93587 16.2354 4.47754C18.6735 3.01921 21.2826 1.91406 24.0625 1.16211C26.8424 0.410156 29.7591 0.0227865 32.8125 0ZM32.8125 61.25C35.4329 61.25 37.9508 60.9082 40.3662 60.2246C42.7816 59.541 45.0374 58.584 47.1338 57.3535C49.2301 56.123 51.1556 54.6419 52.9102 52.9102C54.6647 51.1784 56.1458 49.2643 57.3535 47.168C58.5612 45.0716 59.5182 42.8044 60.2246 40.3662C60.931 37.9281 61.2728 35.4102 61.25 32.8125C61.25 30.1921 60.9082 27.6742 60.2246 25.2588C59.541 22.8434 58.584 20.5876 57.3535 18.4912C56.123 16.3949 54.6419 14.4694 52.9102 12.7148C51.1784 10.9603 49.2643 9.47917 47.168 8.27148C45.0716 7.0638 42.8044 6.10677 40.3662 5.40039C37.9281 4.69401 35.4102 4.35221 32.8125 4.375C30.1921 4.375 27.6742 4.7168 25.2588 5.40039C22.8434 6.08398 20.5876 7.04102 18.4912 8.27148C16.3949 9.50195 14.4694 10.9831 12.7148 12.7148C10.9603 14.4466 9.47917 16.3607 8.27148 18.457C7.0638 20.5534 6.10677 22.8206 5.40039 25.2588C4.69401 27.6969 4.35221 30.2148 4.375 32.8125C4.375 35.4329 4.7168 37.9508 5.40039 40.3662C6.08398 42.7816 7.04102 45.0374 8.27148 47.1338C9.50195 49.2301 10.9831 51.1556 12.7148 52.9102C14.4466 54.6647 16.3607 56.1458 18.457 57.3535C20.5534 58.5612 22.8206 59.5182 25.2588 60.2246C27.6969 60.931 30.2148 61.2728 32.8125 61.25ZM32.8125 16.4404L47.5098 31.2744L44.3652 34.3506L35 24.8486V48.125H30.625V24.8486L21.2598 34.3506L18.1152 31.2744L32.8125 16.4404Z" fill="#7E4DF6"/>
</svg>
