<svg xmlns="http://www.w3.org/2000/svg" viewBox="0 0 16 16">
  <defs>
    <style>.canvas{fill: none; opacity: 0;}.light-red{fill: #c50b17; opacity: 1;}.white{fill: #ffffff; opacity: 1;}.cls-1{opacity:0.5;}</style>
  </defs>
  <title>HotReload</title>
  <g id="canvas">
    <path class="canvas" d="M16,16H0V0H16Z" />
  </g>
  <g id="level-1">
    <path class="light-red" d="M12.875,1.22A9.143,9.143,0,0,0,11,7a1,1,0,0,0,.84.987A.971.971,0,0,0,12,8a1,1,0,0,0,.948-.684,2.421,2.421,0,0,1,.7-1.044A10.12,10.12,0,0,0,13,9.9a5.018,5.018,0,0,1-3.148,4.769A5.483,5.483,0,0,1,8,15a5.006,5.006,0,0,1-5-5A7.1,7.1,0,0,1,5.094,5a2.015,2.015,0,0,0,.116.388A1.825,1.825,0,0,0,7,6.5c1.1,0,1.552-.972,1.954-1.83a6.045,6.045,0,0,1,1.771-2.46,4.8,4.8,0,0,1,2.15-.99M15.731,0h0c-3.276.027-4.322.45-5.6,1.408C8,3,8,5.5,7,5.5c-1.5,0-1-2,0-3A8.331,8.331,0,0,0,2,10a6,6,0,0,0,6,6,6.494,6.494,0,0,0,2.189-.389A6,6,0,0,0,14,9.908a7.2,7.2,0,0,1,1.834-5.261.078.078,0,0,0-.064-.132h-.04A3.819,3.819,0,0,0,12,7c0-2.5,1-5.5,3.776-6.856C15.847.109,15.808,0,15.731,0ZM7,2.5H7Z" />
    <g class="cls-1">
      <path class="light-red" d="M14.794,5.128A8.542,8.542,0,0,0,13.5,9.9a5.521,5.521,0,0,1-3.479,5.236A6.016,6.016,0,0,1,8,15.5,5.5,5.5,0,0,1,2.5,10,7.789,7.789,0,0,1,5.659,3.825,2.113,2.113,0,0,0,5.672,5.2,1.318,1.318,0,0,0,7,6c.777,0,1.129-.749,1.5-1.542A6.434,6.434,0,0,1,10.426,1.81a5.958,5.958,0,0,1,3.8-1.259C11.72,2.613,11.5,5.919,11.5,7l.975.158A3.189,3.189,0,0,1,14.794,5.128Z" />
    </g>
    <g class="cls-1">
      <path class="white" d="M7.5,13A2.5,2.5,0,0,1,5,10.5,2.7,2.7,0,0,1,7.5,8a2.052,2.052,0,0,0,2-1.5c-.337,1.081.757,2.194.757,3.495A2.962,2.962,0,0,1,7.5,13Z" />
    </g>
  </g>
</svg>
