<svg xmlns="http://www.w3.org/2000/svg" viewBox="0 0 16 16">
  <defs>
    <style>.canvas{fill: none; opacity: 0;}.light-red-10{fill: #c50b17; opacity: 0.1;}.light-red{fill: #c50b17; opacity: 1;}</style>
  </defs>
  <title>IconLightHotSpot</title>
  <g id="canvas" class="canvas">
    <path class="canvas" d="M16,16H0V0H16Z" />
  </g>
  <g id="level-1">
    <path class="light-red-10" d="M10.159,7.56A5.441,5.441,0,0,1,8.5,3.5a3,3,0,0,0-3,3c0,.073,0,.146.008.217l.02.29-.242.161A4,4,0,1,0,11.5,10.5,4.121,4.121,0,0,0,10.159,7.56Z" />
    <path class="light-red" d="M7.5,15A4.5,4.5,0,0,1,5.009,6.752Q5,6.627,5,6.5A3.5,3.5,0,0,1,8.5,3H9v.5a4.962,4.962,0,0,0,1.539,3.734A4.586,4.586,0,0,1,12,10.5,4.505,4.505,0,0,1,7.5,15ZM5.255,7.815A3.5,3.5,0,1,0,11,10.5,3.626,3.626,0,0,0,9.783,7.89,5.93,5.93,0,0,1,8.019,4.046,2.5,2.5,0,0,0,6.732,8.268l-.707.707A3.5,3.5,0,0,1,5.255,7.815Z" />
    <path class="light-red-10" d="M8,10.5c0,1.172,1,1.672,1,2.5a1.5,1.5,0,0,1-3,0C6,12.172,7.172,10.5,8,10.5Z" />
    <path class="light-red" d="M7.5,15a2,2,0,0,1-2-2c0-1.043,1.324-3,2.5-3h.5v.5a2.083,2.083,0,0,0,.479,1.2A2.319,2.319,0,0,1,9.5,13,2,2,0,0,1,7.5,15Zm.1-3.806A3.251,3.251,0,0,0,6.5,13a1,1,0,0,0,2,0,1.512,1.512,0,0,0-.35-.745A3.783,3.783,0,0,1,7.6,11.194Z" />
  </g>
</svg>
