<!-- Exported by Character Map UWP -->
<svg height="100%" viewBox="32 0 954 1024" width="100%" xmlns="http://www.w3.org/2000/svg" xmlns:xlink="http://www.w3.org/1999/xlink">
  <path d="M480,416L480,32C480,23.3334 483.167,15.8334 489.5,9.5C495.833,3.16669 503.333,0 512,0C520.667,0 528.167,3.16669 534.5,9.5C540.833,15.8334 544,23.3334 544,32L544,416C544,424.667 540.833,432.167 534.5,438.5C528.167,444.833 520.667,448 512,448C503.333,448 495.833,444.833 489.5,438.5C483.167,432.167 480,424.667 480,416ZM32,540C32,498.667 37.5833,457.917 48.75,417.75C59.9167,377.583 75.75,339.583 96.25,303.75C116.75,267.917 141.583,235.167 170.75,205.5C199.917,175.833 232.5,150.667 268.5,130C273.5,127 279,125.5 285,125.5C293.667,125.5 301.167,128.667 307.5,135C313.833,141.333 317,148.833 317,157.5C317,164.167 315.583,169.583 312.75,173.75C309.917,177.917 306,181.833 301,185.5C289,194.167 277.75,201.833 267.25,208.5C256.75,215.167 245.833,223.667 234.5,234C212.5,253.667 192.917,275.333 175.75,299C158.583,322.667 144.083,347.75 132.25,374.25C120.417,400.75 111.417,428.333 105.25,457C99.0833,485.667 96,514.667 96,544C96,594.667 104.5,642.75 121.5,688.25C138.5,733.75 162.25,774.667 192.75,811C223.25,847.333 259.5,877.917 301.5,902.75C343.5,927.583 389.333,944.5 439,953.5C448.667,966.833 459.25,979.333 470.75,991C482.25,1002.67 494.333,1013.67 507,1024C462.333,1023.67 419.583,1017.58 378.75,1005.75C337.917,993.917 299.917,977.417 264.75,956.25C229.583,935.083 197.667,909.833 169,880.5C140.333,851.167 115.833,818.667 95.5,783C75.1667,747.333 59.5,709 48.5,668C37.5,627 32,584.333 32,540ZM906,409.5C893.333,371.5 875.417,336.25 852.25,303.75C829.083,271.25 801.833,242.5 770.5,217.5C762.833,211.5 755,206.083 747,201.25C739,196.417 731,191.167 723,185.5C718,181.833 714.083,177.833 711.25,173.5C708.417,169.167 707,163.833 707,157.5C707,148.833 710.167,141.333 716.5,135C722.833,128.667 730.333,125.5 739,125.5C745,125.5 750.5,127 755.5,130C785.5,146.667 813.333,167.167 839,191.5C864.667,215.833 887.417,242.75 907.25,272.25C927.083,301.75 943.667,333 957,366C970.333,399 979.833,432.167 985.5,465.5C973.5,454.833 960.917,444.75 947.75,435.25C934.583,425.75 920.667,417.167 906,409.5Z" fill="#000000" fill-opacity="1">
  </path>
</svg>