<!-- Exported by Character Map UWP -->
<svg height="100%" viewBox="64 0 960 992" width="100%" xmlns="http://www.w3.org/2000/svg" xmlns:xlink="http://www.w3.org/1999/xlink">
  <path d="M352,832L128,832C119.333,832 111.083,830.333 103.25,827C95.4167,823.667 88.5833,819.083 82.75,813.25C76.9167,807.417 72.3333,800.583 69,792.75C65.6667,784.917 64,776.667 64,768C64,759.333 65.6667,751.167 69,743.5L128,601.5L128,380C128,345 132.667,311.333 142,279C151.333,246.667 164.417,216.417 181.25,188.25C198.083,160.083 218.25,134.417 241.75,111.25C265.25,88.0834 291.25,68.25 319.75,51.75C348.25,35.25 378.75,22.5 411.25,13.5C443.75,4.5 477.333,0 512,0C529,0 546.583,1.08337 564.75,3.25C582.917,5.41669 600.167,9.16669 616.5,14.5C623.5,16.8334 629.167,20.5834 633.5,25.75C637.833,30.9167 640,37.3334 640,45C640,53.6667 636.917,61.2501 630.75,67.75C624.583,74.2501 617,77.5001 608,77.5C605,77.5001 602,77.0001 599,76C570.333,68.0001 541.333,64.0001 512,64C467.667,64.0001 426.083,72.3334 387.25,89C348.417,105.667 314.5,128.5 285.5,157.5C256.5,186.5 233.667,220.417 217,259.25C200.333,298.083 192,339.667 192,384L192,608C192,610.667 190.667,615.917 188,623.75C185.333,631.583 181.833,640.75 177.5,651.25C173.167,661.75 168.417,673.083 163.25,685.25C158.083,697.417 153.167,709 148.5,720C143.833,731 139.583,740.833 135.75,749.5C131.917,758.167 129.333,764.333 128,768L896,768L834.5,620.5C833.167,617.167 832.25,610.917 831.75,601.75C831.25,592.583 831,582.5 831,571.5C831,559.5 831.167,547.833 831.5,536.5C831.833,525.167 832,517 832,512C832,503.333 835.167,495.833 841.5,489.5C847.833,483.167 855.333,480 864,480C872.667,480 880.167,483.167 886.5,489.5C892.833,495.833 896,503.333 896,512L896,601.5L955,743.5C958.333,751.167 960,759.333 960,768C960,776.667 958.333,784.917 955,792.75C951.667,800.583 947.083,807.417 941.25,813.25C935.417,819.083 928.583,823.667 920.75,827C912.917,830.333 904.667,832 896,832L672,832L672,835.5C672,857.167 667.667,877.5 659,896.5C650.333,915.5 638.667,932.083 624,946.25C609.333,960.417 592.333,971.583 573,979.75C553.667,987.917 533.333,992 512,992C491,992 470.917,988 451.75,980C432.583,972 415.583,961 400.75,947C385.917,933 374.083,916.667 365.25,898C356.417,879.333 352,859.333 352,838ZM768,384C759,384 751.417,380.917 745.25,374.75C739.083,368.583 736,361 736,352C736,345.333 738,339.167 742,333.5L930.5,64L768,64C759.333,64.0001 751.833,60.8334 745.5,54.5C739.167,48.1667 736,40.6667 736,32C736,23.3334 739.167,15.8334 745.5,9.5C751.833,3.16669 759.333,0 768,0L992,0C1001,0 1008.58,3.08337 1014.75,9.25C1020.92,15.4167 1024,23 1024,32C1024,39 1022,45.1667 1018,50.5L829.5,320L992,320C1000.67,320 1008.17,323.167 1014.5,329.5C1020.83,335.833 1024,343.333 1024,352C1024,361 1020.92,368.583 1014.75,374.75C1008.58,380.917 1001,384 992,384ZM480,512C471,512 463.417,508.917 457.25,502.75C451.083,496.583 448,489 448,480C448,472.333 450.5,465.5 455.5,459.5L571.5,320L480,320C471.333,320 463.833,316.833 457.5,310.5C451.167,304.167 448,296.667 448,288C448,279 451.083,271.417 457.25,265.25C463.417,259.083 471,256 480,256L640,256C649,256 656.583,259.083 662.75,265.25C668.917,271.417 672,279 672,288C672,295.667 669.5,302.5 664.5,308.5L548.5,448L640,448C648.667,448 656.167,451.167 662.5,457.5C668.833,463.833 672,471.333 672,480C672,488.667 668.833,496.167 662.5,502.5C656.167,508.833 648.667,512 640,512ZM608,832L416,832C416,845 418.5,857.333 423.5,869C428.5,880.667 435.417,890.917 444.25,899.75C453.083,908.583 463.333,915.5 475,920.5C486.667,925.5 499,928 512,928C525,928 537.333,925.5 549,920.5C560.667,915.5 570.917,908.583 579.75,899.75C588.583,890.917 595.5,880.667 600.5,869C605.5,857.333 608,845 608,832Z" fill="#000000" fill-opacity="1">
  </path>
</svg>