<!-- Exported by Character Map UWP -->
<svg height="100%" viewBox="0 0 1024 1024" width="100%" xmlns="http://www.w3.org/2000/svg" xmlns:xlink="http://www.w3.org/1999/xlink">
  <path d="M1023.5,506.5C1003.83,480.833 980.5,458.333 953.5,439C947.833,403 938,368.75 924,336.25C910,303.75 892.75,273.583 872.25,245.75C851.75,217.917 828.167,192.833 801.5,170.5C774.833,148.167 746.083,129.083 715.25,113.25C684.417,97.4167 651.833,85.2501 617.5,76.75C583.167,68.2501 547.833,64.0001 511.5,64C474.833,64.0001 439,68.4167 404,77.25C369,86.0834 335.75,98.75 304.25,115.25C272.75,131.75 243.417,151.833 216.25,175.5C189.083,199.167 165.167,226 144.5,256L352,256C360.667,256 368.167,259.167 374.5,265.5C380.833,271.833 384,279.333 384,288C384,296.667 380.833,304.167 374.5,310.5C368.167,316.833 360.667,320 352,320L96,320C89,320 83.3333,318.583 79,315.75C74.6667,312.917 71.3333,309.25 69,304.75C66.6667,300.25 65.1667,295.25 64.5,289.75C63.8333,284.25 63.5,278.667 63.5,273C63.5,232.667 63.5833,192.5 63.75,152.5C63.9167,112.5 64,72.3334 64,32C64,23.3334 67.1667,15.8334 73.5,9.5C79.8333,3.16669 87.3333,0 96,0C104.667,0 112.167,3.16669 118.5,9.5C124.833,15.8334 128,23.3334 128,32L128,173C152.333,145.333 179.167,120.75 208.5,99.25C237.833,77.7501 268.833,59.6667 301.5,45C334.167,30.3334 368.167,19.1667 403.5,11.5C438.833,3.83337 475,0 512,0C558.667,0 603.667,6 647,18C690.333,30 730.917,47 768.75,69C806.583,91 841,117.333 872,148C903,178.667 929.583,212.833 951.75,250.5C973.917,288.167 991.25,328.583 1003.75,371.75C1016.25,414.917 1022.83,459.833 1023.5,506.5ZM506.5,1023.5C459.833,1023.5 415,1017.25 372,1004.75C329,992.25 288.75,974.75 251.25,952.25C213.75,929.75 179.583,902.833 148.75,871.5C117.917,840.167 91.5,805.583 69.5,767.75C47.5,729.917 30.4167,689.333 18.25,646C6.08333,602.667 0,558 0,512C0,503.333 3.16667,495.833 9.5,489.5C15.8333,483.167 23.3333,480 32,480C40.6667,480 48.1667,483.167 54.5,489.5C60.8333,495.833 64,503.333 64,512C64,566.667 73.5833,619.333 92.75,670C111.917,720.667 139.5,766.5 175.5,807.5C209.833,846.5 249.5,878.5 294.5,903.5C339.5,928.5 387.667,945.167 439,953.5C458.333,980.5 480.833,1003.83 506.5,1023.5Z" fill="#000000" fill-opacity="1">
  </path>
</svg>