<svg xmlns="http://www.w3.org/2000/svg" viewBox="0 0 16 16">
  <defs>
    <style>.canvas{fill: none; opacity: 0;}.light-purple-10{fill: #6936aa; opacity: 0.1;}.light-purple{fill: #6936aa; opacity: 1;}</style>
  </defs>
  <title>Intellicode</title>
  <g id="canvas">
    <path class="canvas" d="M16,16H0V0H16ZM16,0H0V16H16Z" />
  </g>
  <g id="level-1">
    <path class="light-purple-10" d="M12.5,6.5a4.985,4.985,0,0,1-2.1,4.068,2.054,2.054,0,0,0-.9,1.664V12.5h-4v-.336a1.941,1.941,0,0,0-.871-1.576A5,5,0,1,1,12.5,6.5Z" />
    <path class="light-purple" d="M11.976,3.3A5.5,5.5,0,1,0,4,10.745c.11.089.222.174.338.255A1.442,1.442,0,0,1,5,12.164V12.5l.5.5h4l.5-.5v-.269a1.55,1.55,0,0,1,.689-1.256A5.5,5.5,0,0,0,11.976,3.3Zm-.792,5.773a4.5,4.5,0,0,1-1.075,1.083A2.555,2.555,0,0,0,9.011,12H5.994a2.447,2.447,0,0,0-1.078-1.821,4.5,4.5,0,1,1,6.268-1.1Z" />
    <path class="light-purple-10" d="M9.5,12.5v3h-4v-3Z" />
    <path class="light-purple" d="M9.5,12h-4l-.5.5v3l.5.5h4l.5-.5v-3ZM9,15H6V13H9Z" />
    <path class="light-purple" d="M6.268,6.554a.5.5,0,1,1-.708.707L4.5,6.2a.474.474,0,0,1-.1-.1.5.5,0,1,1,.8-.6ZM10.505,5.5H10.5a.5.5,0,0,0-.707,0L8.737,6.556a.5.5,0,0,0,.707.707L10.505,6.2A.5.5,0,0,0,10.505,5.5ZM7.5,4.25a.5.5,0,0,0-.5.5v1.5a.5.5,0,0,0,1,0V4.75A.5.5,0,0,0,7.5,4.25ZM7.5,8a.5.5,0,0,0-.5.5V12H8V8.5A.5.5,0,0,0,7.5,8Z" />
  </g>
</svg>
