<svg xmlns="http://www.w3.org/2000/svg" viewBox="0 0 16 16">
  <defs>
    <style>.canvas{fill: none; opacity: 0;}.light-blue-10{fill: #005dba; opacity: 0.1;}.light-blue{fill: #005dba; opacity: 1;}.white{fill: #ffffff; opacity: 1;}.cls-1{opacity:0.5;}.cls-2{opacity:0.75;}</style>
  </defs>
  <title>IconLightLoading</title>
  <g id="canvas">
    <path class="canvas" d="M16,0V16H0V0Z" />
  </g>
  <g id="level-1">
    <path class="light-blue-10" d="M14.5,9.5a1,1,0,1,1-1-1A1,1,0,0,1,14.5,9.5Z" />
    <g class="cls-1">
      <path class="light-blue" d="M4.5,12.5a1,1,0,1,1-1-1A1,1,0,0,1,4.5,12.5Z" />
      <path class="light-blue" d="M8.5,13.5a1,1,0,1,1-1-1A1,1,0,0,1,8.5,13.5Z" />
      <path class="light-blue" d="M12.5,12.5a1,1,0,1,1-1-1A1,1,0,0,1,12.5,12.5Z" />
    </g>
    <g class="cls-2">
      <path class="light-blue" d="M2.5,5.5a1,1,0,1,1-1-1A1,1,0,0,1,2.5,5.5Zm2-3a1,1,0,1,1-1-1A1,1,0,0,1,4.5,2.5Zm-2,7a1,1,0,1,1-1-1A1,1,0,0,1,2.5,9.5Z" />
    </g>
    <path class="light-blue-10" d="M14.5,5.5a1,1,0,1,1-1-1A1,1,0,0,1,14.5,5.5Z" />
    <path class="white" d="M8.5,1.5a1,1,0,1,1-1-1A1,1,0,0,1,8.5,1.5Z" />
    <path class="white" d="M12.5,2.5a1,1,0,1,1-1-1A1,1,0,0,1,12.5,2.5Z" />
    <path class="light-blue" d="M7.5,0A1.5,1.5,0,1,0,9,1.5,1.5,1.5,0,0,0,7.5,0Zm0,2A.5.5,0,1,1,8,1.5.5.5,0,0,1,7.5,2Z" />
    <path class="light-blue" d="M13.5,4A1.5,1.5,0,1,0,15,5.5,1.5,1.5,0,0,0,13.5,4Zm0,2a.5.5,0,1,1,.5-.5A.5.5,0,0,1,13.5,6Z" />
    <path class="light-blue" d="M13.5,8A1.5,1.5,0,1,0,15,9.5,1.5,1.5,0,0,0,13.5,8Zm0,2a.5.5,0,1,1,.5-.5A.5.5,0,0,1,13.5,10Z" />
    <path class="light-blue" d="M1.5,4A1.5,1.5,0,1,0,3,5.5,1.5,1.5,0,0,0,1.5,4Zm0,2A.5.5,0,1,1,2,5.5.5.5,0,0,1,1.5,6Z" />
    <path class="light-blue" d="M1.5,8A1.5,1.5,0,1,0,3,9.5,1.5,1.5,0,0,0,1.5,8Zm0,2A.5.5,0,1,1,2,9.5.5.5,0,0,1,1.5,10Z" />
    <path class="light-blue" d="M7.5,12A1.5,1.5,0,1,0,9,13.5,1.5,1.5,0,0,0,7.5,12Zm0,2a.5.5,0,1,1,.5-.5A.5.5,0,0,1,7.5,14Z" />
    <path class="light-blue" d="M11.5,11A1.5,1.5,0,1,0,13,12.5,1.5,1.5,0,0,0,11.5,11Zm0,2a.5.5,0,1,1,.5-.5A.5.5,0,0,1,11.5,13Z" />
    <path class="light-blue" d="M11.5,1A1.5,1.5,0,1,0,13,2.5,1.5,1.5,0,0,0,11.5,1Zm0,2a.5.5,0,1,1,.5-.5A.5.5,0,0,1,11.5,3Z" />
    <path class="light-blue" d="M3.5,11A1.5,1.5,0,1,0,5,12.5,1.5,1.5,0,0,0,3.5,11Zm0,2a.5.5,0,1,1,.5-.5A.5.5,0,0,1,3.5,13Z" />
    <path class="light-blue" d="M3.5,1A1.5,1.5,0,1,0,5,2.5,1.5,1.5,0,0,0,3.5,1Zm0,2A.5.5,0,1,1,4,2.5.5.5,0,0,1,3.5,3Z" />
  </g>
</svg>
