<svg width="64" height="64" viewBox="0 0 64 64" fill="none" xmlns="http://www.w3.org/2000/svg">
<path d="M32 61.3337C48.2003 61.3337 61.3333 48.2007 61.3333 32.0003C61.3333 15.8 48.2003 2.66699 32 2.66699C15.7996 2.66699 2.66663 15.8 2.66663 32.0003C2.66663 48.2007 15.7996 61.3337 32 61.3337Z" fill="#FAFAFA"/>
<path opacity="0.1" d="M61.33 31.834C61.2566 44.6973 52.9066 55.6006 41.3333 59.484C38.4 60.4673 35.2633 61.0006 32 61.0006C15.8566 61.0006 2.75996 47.9573 2.66996 31.834C2.66996 31.8907 2.66663 31.944 2.66663 32.0007C2.66663 48.2006 15.8 61.334 32 61.334C35.2633 61.334 38.4 60.8006 41.3333 59.8173C52.9566 55.9173 61.3333 44.9373 61.3333 32.0007C61.3333 31.944 61.33 31.8907 61.33 31.834Z" fill="#202124"/>
<path opacity="0.4" d="M41.3333 4.18366C38.4 3.20033 35.2633 2.66699 32 2.66699C15.8 2.66699 2.66663 15.8003 2.66663 32.0003C2.66663 32.057 2.66996 32.1103 2.66996 32.167C2.75996 16.0437 15.8566 3.00033 32 3.00033C35.2633 3.00033 38.4 3.53366 41.3333 4.51699C52.9066 8.40033 61.2566 19.3037 61.33 32.167C61.33 32.1103 61.3333 32.057 61.3333 32.0003C61.3333 19.0637 52.9566 8.08366 41.3333 4.18366Z" fill="white"/>
<path d="M39 43.8562V48.2962C39 50.8962 36.9133 52.9995 34.3333 52.9995C31.7533 52.9995 29.6666 50.8962 29.6666 48.2962V36.6729L39 43.8562Z" fill="#34A853"/>
<path d="M39 15.3701V43.8568L29.6666 36.6734V25.3434L37.3033 19.0001C38.4233 18.0701 39 16.7268 39 15.3701Z" fill="url(#paint0_linear)"/>
<path d="M38.9966 15.2098C39 15.2631 39 15.3164 39 15.3731C39 16.7298 38.4233 18.0731 37.3033 18.9998L29.6666 25.3431V15.3698C29.6666 13.8298 30.4033 12.4598 31.5433 11.5998C31.6233 11.5364 31.7066 11.4798 31.7933 11.4231C31.8333 11.3964 31.8733 11.3698 31.9133 11.3464C31.9766 11.3064 32.0433 11.2664 32.11 11.2331C32.1766 11.1964 32.2433 11.1631 32.31 11.1298C32.38 11.0964 32.4466 11.0664 32.5166 11.0364C32.5866 11.0064 32.6566 10.9764 32.73 10.9498C32.8 10.9231 32.8733 10.8998 32.9466 10.8764C33.08 10.8364 33.2166 10.7964 33.3566 10.7664C33.3966 10.7564 33.44 10.7498 33.4866 10.7398C33.52 10.7331 33.5466 10.7298 33.58 10.7264C33.6366 10.7164 33.69 10.7098 33.7466 10.7031C33.81 10.6931 33.8766 10.6864 33.9433 10.6831C33.9966 10.6764 34.05 10.6731 34.1 10.6698C34.1766 10.6664 34.2533 10.6631 34.3333 10.6631C34.5033 10.6631 34.67 10.6731 34.8333 10.6898C34.9166 10.6998 35 10.7098 35.0833 10.7264C35.1666 10.7398 35.2466 10.7564 35.33 10.7731C35.41 10.7898 35.4933 10.8098 35.5766 10.8364C35.6433 10.8531 35.7133 10.8731 35.78 10.8998C35.91 10.9431 36.0433 10.9898 36.1666 11.0464C36.2266 11.0731 36.2933 11.1031 36.3533 11.1331C36.4333 11.1698 36.51 11.2131 36.5866 11.2531C36.7 11.3164 36.81 11.3864 36.9233 11.4598C36.9366 11.4698 36.9466 11.4764 36.96 11.4831C37.0766 11.5664 37.19 11.6531 37.3 11.7431C37.3566 11.7898 37.41 11.8364 37.4666 11.8864C37.47 11.8898 37.47 11.8898 37.4733 11.8931C37.5266 11.9431 37.5766 11.9931 37.63 12.0464C37.6833 12.0998 37.7366 12.1564 37.7833 12.2098C37.8866 12.3231 37.98 12.4398 38.07 12.5598C38.13 12.6431 38.19 12.7264 38.2466 12.8131C38.2733 12.8531 38.3 12.8931 38.3233 12.9331C38.3633 12.9964 38.4033 13.0664 38.4366 13.1298C38.4733 13.1964 38.5066 13.2664 38.54 13.3331C38.5733 13.4031 38.6033 13.4698 38.6333 13.5431C38.6633 13.6164 38.6933 13.6831 38.7166 13.7564C38.7433 13.8264 38.7666 13.8998 38.79 13.9731C38.8233 14.0764 38.8466 14.1798 38.87 14.2831C38.8833 14.3298 38.8933 14.3764 38.9033 14.4231C38.9166 14.4898 38.93 14.5564 38.94 14.6198C38.95 14.6731 38.9533 14.7264 38.96 14.7798C38.97 14.8431 38.9766 14.9098 38.98 14.9764C38.9866 15.0298 38.99 15.0831 38.9933 15.1364C38.9933 15.1564 38.9966 15.1831 38.9966 15.2098Z" fill="#EA4335"/>
<path d="M31.36 11.7402C31.42 11.6935 31.4767 11.6468 31.54 11.6035C30.3934 12.4602 29.6667 14.0002 29.6667 15.3335V25.3335L25.6667 28.6402C24.7934 29.3635 23.74 29.7135 22.6867 29.7135C21.3367 29.7135 19.9967 29.1302 19.07 28.0035C17.4234 26.0002 17.7067 23.0368 19.7067 21.3835L31.36 11.7402Z" fill="#FBBC04"/>
<path d="M32 61.3337C48.2003 61.3337 61.3333 48.2007 61.3333 32.0003C61.3333 15.8 48.2003 2.66699 32 2.66699C15.7996 2.66699 2.66663 15.8 2.66663 32.0003C2.66663 48.2007 15.7996 61.3337 32 61.3337Z" fill="url(#paint1_linear)"/>
<defs>
<linearGradient id="paint0_linear" x1="39.038" y1="44.0797" x2="39.038" y2="15.361" gradientUnits="userSpaceOnUse">
<stop stop-color="#1A73E8"/>
<stop offset="1" stop-color="#4285F4"/>
</linearGradient>
<linearGradient id="paint1_linear" x1="-9.48364" y1="32.0003" x2="32" y2="73.4839" gradientUnits="userSpaceOnUse">
<stop stop-color="white" stop-opacity="0.1"/>
<stop offset="1" stop-color="white" stop-opacity="0.01"/>
</linearGradient>
</defs>
</svg>
