<svg viewbox="0 0 24 24" xmlns="http://www.w3.org/2000/svg"><g fill="none" fill-rule="evenodd"><path d="M7.79022 3C6.801509 3 6 3.827982 6 4.84935v11.695874c0 1.021368.801509 1.84935 1.79022 1.84935H15l2.598664 3.837222C17.85752 22.690864 18.34335 23 18.9 23c.828427 0 1.5-.684692 1.5-1.529302v-3.076124h1.80978c.988711 0 1.79022-.827982 1.79022-1.84935V4.84935C24 3.827982 23.198491 3 22.20978 3H7.79022z" fill="#D87B27" fill-rule="nonzero"/><path d="M18.010867 0C19.109435 0 20 .874123 20 1.952407v12.347641c0 1.078285-.890565 1.952407-1.989133 1.952407H10l-3.294016 4.139671C6.432707 20.760935 5.994272 21 5.5 21c-.828427 0-1.5-.671573-1.5-1.5v-3.247545H1.989133C.890565 16.252455 0 15.378333 0 14.300048V1.952408C0 .874122.890565 0 1.989133 0h16.021734z" fill="#F7992F" fill-rule="nonzero"/><path d="M12.897452 11.21859H4.634524c-.495588 0-.897402-.401815-.897402-.897402 0-.495588.401814-.897155.897402-.897155h8.262927c.495588 0 .897155.401567.897155.897155 0 .495587-.401567.897402-.897154.897402M15.711662 6.6408H4.634548c-.495587 0-.897402-.401814-.897402-.897402 0-.495588.401815-.897402.897402-.897402h11.077114c.495587 0 .897154.401814.897154.897402 0 .495588-.401567.897402-.897154.897402" fill="#FEFEFE"/></g></svg>
