<svg width="1200" height="1200" viewBox="0 0 40 40" fill="none" xmlns="http://www.w3.org/2000/svg">
<path d="M14.5117 11.1133C13.9258 11.8034 13.2617 12.6432 12.5195 13.6328C11.7773 14.6094 11.0156 15.6771 10.2344 16.8359C9.46615 17.9818 8.71094 19.1797 7.96875 20.4297C7.22656 21.6667 6.5625 22.8971 5.97656 24.1211C5.39062 25.332 4.91536 26.5039 4.55078 27.6367C4.19922 28.7565 4.02344 29.7656 4.02344 30.6641C4.02344 31.1589 4.08854 31.6211 4.21875 32.0508L4.19922 32.1484C4.14714 32.1484 4.10807 32.1354 4.08203 32.1094C3.41797 31.276 2.83203 30.3776 2.32422 29.4141C1.81641 28.4375 1.38672 27.4349 1.03516 26.4062C0.696615 25.3646 0.436198 24.3034 0.253906 23.2227C0.0846354 22.1419 0 21.0677 0 20C0 18.6979 0.130208 17.3958 0.390625 16.0938C0.651042 14.7786 1.03516 13.5091 1.54297 12.2852C2.05078 11.0482 2.67578 9.8763 3.41797 8.76953C4.16016 7.66276 5.00651 6.66016 5.95703 5.76172C6.00911 5.70964 6.10677 5.67708 6.25 5.66406C6.40625 5.63802 6.50391 5.625 6.54297 5.625C6.94661 5.625 7.38281 5.72266 7.85156 5.91797C8.33333 6.11328 8.82812 6.36719 9.33594 6.67969C9.84375 6.99219 10.3516 7.34375 10.8594 7.73438C11.3672 8.125 11.849 8.52214 12.3047 8.92578C12.7604 9.31641 13.1771 9.69401 13.5547 10.0586C13.9323 10.4232 14.2513 10.7292 14.5117 10.9766L14.5312 11.0547L14.5117 11.1133ZM5.95703 5.76172H5.97656H5.95703ZM34.0234 5.76172H34.043H34.0234ZM33.4375 5.625C33.5026 5.625 33.6003 5.63802 33.7305 5.66406C33.8737 5.67708 33.9779 5.70964 34.043 5.76172C34.9935 6.66016 35.8398 7.66276 36.582 8.76953C37.3242 9.8763 37.9492 11.0482 38.457 12.2852C38.9648 13.5091 39.349 14.7786 39.6094 16.0938C39.8698 17.3958 40 18.6979 40 20C40 21.0677 39.9089 22.1419 39.7266 23.2227C39.5573 24.3034 39.2969 25.3646 38.9453 26.4062C38.6068 27.4349 38.1836 28.4375 37.6758 29.4141C37.168 30.3776 36.582 31.276 35.918 32.1094C35.8919 32.1354 35.8529 32.1484 35.8008 32.1484L35.7812 32.0508C35.9115 31.6211 35.9766 31.1589 35.9766 30.6641C35.9766 29.7656 35.7943 28.7565 35.4297 27.6367C35.0781 26.5039 34.6094 25.332 34.0234 24.1211C33.4505 22.8971 32.7865 21.6602 32.0312 20.4102C31.2891 19.1602 30.5273 17.9622 29.7461 16.8164C28.9779 15.6576 28.2161 14.5898 27.4609 13.6133C26.7188 12.6237 26.0612 11.7839 25.4883 11.0938L25.4688 11.0352C25.4818 11.0221 25.4883 11.0156 25.4883 11.0156C25.4883 11.0026 25.4948 10.9896 25.5078 10.9766C25.7552 10.7292 26.0677 10.4232 26.4453 10.0586C26.8359 9.69401 27.2591 9.31641 27.7148 8.92578C28.1706 8.52214 28.6458 8.125 29.1406 7.73438C29.6484 7.34375 30.1497 6.99219 30.6445 6.67969C31.1523 6.36719 31.6406 6.11328 32.1094 5.91797C32.5911 5.72266 33.0339 5.625 33.4375 5.625ZM9.51172 3.04688L9.55078 2.94922C11.1784 1.97266 12.8516 1.23698 14.5703 0.742188C16.2891 0.247396 18.099 0 20 0C21.901 0 23.7044 0.247396 25.4102 0.742188C27.1159 1.22396 28.7826 1.95312 30.4102 2.92969L30.4492 3.02734L30.3516 3.04688C29.9479 2.95573 29.5052 2.91016 29.0234 2.91016C28.2943 2.91016 27.5326 3.0013 26.7383 3.18359C25.957 3.35286 25.1758 3.58073 24.3945 3.86719C23.6133 4.15365 22.8516 4.47917 22.1094 4.84375C21.3672 5.19531 20.6771 5.54688 20.0391 5.89844L20 5.91797L19.9609 5.89844C19.3359 5.54688 18.6523 5.19531 17.9102 4.84375C17.168 4.49219 16.4062 4.17318 15.625 3.88672C14.8438 3.60026 14.056 3.36589 13.2617 3.18359C12.4805 3.0013 11.7318 2.91016 11.0156 2.91016C10.7812 2.91016 10.5469 2.92318 10.3125 2.94922C10.0781 2.96224 9.84375 3.0013 9.60938 3.06641L9.51172 3.04688ZM6.83594 35.0586V35.0391V35.0586ZM20.0586 16.0742C20.5404 16.4388 21.1003 16.901 21.7383 17.4609C22.3893 18.0078 23.0794 18.6263 23.8086 19.3164C24.5378 20.0065 25.2865 20.7487 26.0547 21.543C26.8359 22.3372 27.5911 23.1576 28.3203 24.0039C29.0625 24.8503 29.7591 25.7031 30.4102 26.5625C31.0742 27.4219 31.6536 28.2617 32.1484 29.082C32.6432 29.8893 33.0339 30.6706 33.3203 31.4258C33.6068 32.168 33.75 32.8516 33.75 33.4766C33.75 33.776 33.7044 34.0625 33.6133 34.3359C33.5221 34.5964 33.3724 34.8372 33.1641 35.0586C32.8906 35.332 32.5781 35.599 32.2266 35.8594C31.875 36.1198 31.5365 36.3607 31.2109 36.582C29.5443 37.7018 27.7604 38.5547 25.8594 39.1406C23.9583 39.7135 22.0052 40 20 40C17.9948 40 16.0417 39.7135 14.1406 39.1406C12.2396 38.5547 10.4557 37.7018 8.78906 36.582C8.46354 36.3607 8.125 36.1198 7.77344 35.8594C7.42188 35.599 7.10938 35.332 6.83594 35.0586C6.6276 34.8372 6.47786 34.5964 6.38672 34.3359C6.29557 34.0625 6.25 33.776 6.25 33.4766C6.25 32.8516 6.39323 32.168 6.67969 31.4258C6.96615 30.6706 7.35677 29.8893 7.85156 29.082C8.34635 28.2617 8.91927 27.4219 9.57031 26.5625C10.2344 25.7031 10.931 24.8503 11.6602 24.0039C12.4023 23.1576 13.1576 22.3372 13.9258 21.543C14.707 20.7487 15.4622 20.0065 16.1914 19.3164C16.9206 18.6263 17.6042 18.0078 18.2422 17.4609C18.8932 16.901 19.4596 16.4388 19.9414 16.0742L20 16.0352L20.0586 16.0742Z" fill="#107C10"/>
</svg>
