<svg xmlns="http://www.w3.org/2000/svg" viewBox="0 0 16 16"><defs><style>.canvas{fill:none;opacity:0;}.cls-1{fill:#a7a9ac;}.cls-2{fill:#005295;}.white{fill:#fff;}</style></defs><g id="canvas"><path class="canvas" d="M16,0V16H0V0Z"/></g><g id="level-1"><path class="cls-1" d="M16,0V16H0V0Z"/><path class="cls-2" d="M15.32.646V15.332H.634V.646Z"/><path class="white" d="M4.754,6.352S8.307,6.293,8.74,2.93L10,7.648ZM6.079,1.808a2.659,2.659,0,0,1-2.607,2.24L6.906,4.9ZM12.118,6.86a1.517,1.517,0,0,1,.508,1.284c-.165.937-1.567,1.517-3.39,1.517a9.629,9.629,0,0,1-1.642-.146c-2.567-.447-4.475-1.786-4.262-2.99a1.263,1.263,0,0,1,.459-.74c-1.165.378-1.954,1.025-2.1,1.863C1.381,9.387,3.938,11.283,7.4,11.885a12.188,12.188,0,0,0,2.089.186c2.524,0,4.489-.863,4.732-2.238C14.4,8.8,13.559,7.7,12.118,6.86Z"/></g></svg>