<svg xmlns="http://www.w3.org/2000/svg" viewBox="0 0 16 16">
  <defs>
    <style>.canvas{fill: none; opacity: 0;}.light-defaultgrey-10{fill: #212121; opacity: 0.1;}.light-defaultgrey{fill: #212121; opacity: 1;}.light-green{fill: #1f801f; opacity: 1;}.white{fill: #ffffff; opacity: 1;}</style>
  </defs>
  <title>MessageOK</title>
  <g id="canvas">
    <path class="canvas" d="M16,16H0V0H16Z" />
  </g>
  <g id="level-1">
    <path class="light-defaultgrey-10" d="M1.5,3.5v9H7.03A4.07,4.07,0,0,1,7,12v-.02A5.014,5.014,0,0,1,10.51,7.2h.01A5.2,5.2,0,0,1,12,6.98a5.106,5.106,0,0,1,2,.41c.17.08.34.17.5.26V3.5Z" />
    <path class="light-defaultgrey-10" d="M1.5,3.5,8,8.5l6.5-5Z" />
    <path class="light-defaultgrey" d="M14.5,3H1.5L1,3.5v9l.5.5H7.1a4.293,4.293,0,0,1-.07-.5A4.07,4.07,0,0,1,7,12H2V4.53L7.7,8.9h.36a5.056,5.056,0,0,1,2.45-1.7h.01L14,4.53V7.39c.17.08.34.17.5.26a4.322,4.322,0,0,1,.5.33V3.5ZM8,7.87,2.97,4H13.03Z" />
    <path class="light-green" d="M16,11.979a4,4,0,1,1-4-4A4,4,0,0,1,16,11.979Z" />
    <path class="white" d="M14.208,11.15l-2.365,2.364-.711,0-1.34-1.372.715-.7.987,1.011L13.5,10.443Z" />
  </g>
</svg>
