<svg xmlns="http://www.w3.org/2000/svg" viewBox="0 0 16 16">
  <defs>
    <style>.canvas{fill: none; opacity: 0;}.light-defaultgrey-10{fill: #212121; opacity: 0.1;}.light-defaultgrey{fill: #212121; opacity: 1;}.light-red-10{fill: #c50b17; opacity: 0.1;}.light-red{fill: #c50b17; opacity: 1;}.cls-1{opacity:0.75;}</style>
  </defs>
  <title>NotificationAlertNoColorMute</title>
  <g id="canvas" class="canvas">
    <path class="canvas" d="M16,16H0V0H16Z" />
  </g>
  <g id="level-1">
    <g class="cls-1">
      <path class="light-defaultgrey-10" d="M7.38,13.92A4.888,4.888,0,0,1,7.1,13a4.293,4.293,0,0,1-.07-.5H5.59a1.64,1.64,0,0,0-.09.5A1.5,1.5,0,0,0,7,14.5a1.35,1.35,0,0,0,.6-.13C7.52,14.23,7.45,14.07,7.38,13.92Z" />
      <path class="light-defaultgrey" d="M7.6,14.37c-.08-.14-.15-.3-.22-.45A.99.99,0,0,1,6,13v-.5H5.08A1.492,1.492,0,0,0,5,13a2.006,2.006,0,0,0,2,2,2.033,2.033,0,0,0,.85-.19V14.8C7.76,14.66,7.68,14.52,7.6,14.37Z" />
    </g>
    <path class="light-defaultgrey-10" d="M7.44,1.52A4.506,4.506,0,0,0,2.5,6V8.2a8.028,8.028,0,0,1-.41,2.53L1.5,12.5H7.03A4.07,4.07,0,0,1,7,12a5,5,0,0,1,4-4.9,4.293,4.293,0,0,1,.5-.07V6.19A4.628,4.628,0,0,0,7.44,1.52Z" />
    <path class="light-defaultgrey" d="M7.49,1.02A5.01,5.01,0,0,0,2,6V8.2a7.586,7.586,0,0,1-.38,2.37l-.59,1.77L1.5,13H7.1a4.293,4.293,0,0,1-.07-.5A4.07,4.07,0,0,1,7,12H2.19l.37-1.11A8.471,8.471,0,0,0,3,8.2V6A4.03,4.03,0,0,1,4.31,3.04,3.949,3.949,0,0,1,7.39,2.02,4.126,4.126,0,0,1,11,6.19V7.1a4.293,4.293,0,0,1,.5-.07A4.07,4.07,0,0,1,12,7V6.19A5.148,5.148,0,0,0,7.49,1.02Z" />
    <path class="light-red-10" d="M12,8.5A3.5,3.5,0,1,1,8.5,12,3.5,3.5,0,0,1,12,8.5Z" />
    <path class="light-red" d="M12,8a4,4,0,1,0,4,4A4,4,0,0,0,12,8Zm3,4a2.97,2.97,0,0,1-.56,1.733L10.267,9.56A2.97,2.97,0,0,1,12,9,3,3,0,0,1,15,12ZM9,12a2.97,2.97,0,0,1,.56-1.733l4.173,4.173A2.97,2.97,0,0,1,12,15,3,3,0,0,1,9,12Z" />
  </g>
</svg>
