<svg xmlns="http://www.w3.org/2000/svg" viewBox="0 0 16 16">
  <defs>
    <style>.canvas{fill: none; opacity: 0;}.light-defaultgrey-10{fill: #212121; opacity: 0.1;}.light-defaultgrey{fill: #212121; opacity: 1;}.light-blue{fill: #005dba; opacity: 1;}.cls-1{opacity:0.75;}</style>
  </defs>
  <title>IconLightNotificationHubGroup</title>
  <g id="canvas">
    <path class="canvas" d="M16,16H0V0H16Z" />
    <path class="canvas" d="M16,16H0V0H16Z" />
  </g>
  <g id="level-1">
    <g class="cls-1">
      <path class="light-defaultgrey-10" d="M14.5,1.5v8H13V4.09L11.91,3H3.5V1.5Z" />
      <path class="light-defaultgrey" d="M15,1.5v8l-.5.5H13V9h1V2H4V3H3V1.5L3.5,1h11Z" />
    </g>
    <path class="light-defaultgrey-10" d="M11.5,4.5v8h-6l-3,3v-3H.5v-8Z" />
    <path class="light-defaultgrey" d="M.5,4,0,4.5v8l.5.5H2v2.5l.854.354L5.707,13H11.5l.5-.5v-8L11.5,4ZM11,12H5.5l-.354.146L3,14.293V12.5L2.5,12H1V5H11Z" />
    <path class="light-blue" d="M8,8H3.5l-.354-.854,1.5-1.5.708.708L4.707,7H8Zm.5,1H4v1H7.293l-.647.646.708.708,1.5-1.5Z" />
  </g>
</svg>
