<svg xmlns="http://www.w3.org/2000/svg" viewBox="0 0 16 16">
  <defs>
    <style>.canvas{fill: none; opacity: 0;}.light-offwhite{fill: #f6f6f6; opacity: 1;}.light-red{fill: #c50b17; opacity: 1;}.white{fill: #ffffff; opacity: 1;}</style>
  </defs>
  <title>IconLightOverlayError</title>
  <g id="canvas">
    <path class="canvas" d="M16,16H0V0H16Z" />
  </g>
  <g id="level-1">
    <path class="light-offwhite" d="M11,16a5,5,0,1,1,5-5A5.006,5.006,0,0,1,11,16Z" />
    <path class="light-red" d="M11,7a4,4,0,1,0,4,4A4,4,0,0,0,11,7Z" />
    <path class="white" d="M11.707,11l1.147,1.146-.708.708L11,11.707,9.854,12.854l-.708-.708L10.293,11,9.146,9.854l.708-.708L11,10.293l1.146-1.147.708.708Z" />
  </g>
</svg>
