<!-- Exported by Character Map UWP -->
<svg height="100%" viewBox="64 64 960 960" width="100%" xmlns="http://www.w3.org/2000/svg" xmlns:xlink="http://www.w3.org/1999/xlink">
  <path d="M325,832L189.5,832C172.833,832 156.917,828.583 141.75,821.75C126.583,814.917 113.25,805.75 101.75,794.25C90.25,782.75 81.0833,769.417 74.25,754.25C67.4167,739.083 64,723.167 64,706.5L64,189.5C64,172.833 67.4167,156.917 74.25,141.75C81.0833,126.583 90.25,113.25 101.75,101.75C113.25,90.25 126.583,81.0834 141.75,74.25C156.917,67.4167 172.833,64.0001 189.5,64L834.5,64C851.167,64.0001 867.083,67.4167 882.25,74.25C897.417,81.0834 910.75,90.25 922.25,101.75C933.75,113.25 942.917,126.583 949.75,141.75C956.583,156.917 960,172.833 960,189.5L960,444C951.333,437.333 941.25,430.333 929.75,423C918.25,415.667 906.083,409 893.25,403C880.417,397 867.417,392 854.25,388C841.083,384 828.833,382 817.5,382L812,382C818,379.333 822.833,375.333 826.5,370C830.167,364.667 832,358.667 832,352C832,343.333 828.833,335.833 822.5,329.5C816.167,323.167 808.667,320 800,320L224,320C215.333,320 207.833,323.167 201.5,329.5C195.167,335.833 192,343.333 192,352C192,360.667 195.167,368.167 201.5,374.5C207.833,380.833 215.333,384 224,384L796.5,384C783.5,387 771.667,392.083 761,399.25C750.333,406.417 741.25,415 733.75,425C726.25,435 720.417,446.083 716.25,458.25C712.083,470.417 710,483 710,496C710,506.333 711.167,516 713.5,525C716.167,534.333 717.917,543.417 718.75,552.25C719.583,561.083 720,570.333 720,580C720,608.333 714.333,634.833 703,659.5C691.667,684.167 676.5,705.75 657.5,724.25C638.5,742.75 616.417,757.333 591.25,768C566.083,778.667 539.667,784 512,784C495,784 479,788.083 464,796.25C449,804.417 436.667,815.667 427,830C424,834.667 421.5,839.917 419.5,845.75C417.5,851.583 415.917,857.667 414.75,864C413.583,870.333 412.75,876.583 412.25,882.75C411.75,888.917 411.5,894.667 411.5,900C411.5,905.333 411.667,910.583 412,915.75C412.333,920.917 413,926 414,931ZM491.5,883.5C491.5,877.833 493.583,873.167 497.75,869.5C501.917,865.833 506.667,864 512,864C563.667,864 611.667,851.167 656,825.5C678.333,812.5 698.333,797 716,779C733.667,761 748.75,741.25 761.25,719.75C773.75,698.25 783.333,675.333 790,651C796.667,626.667 800,601.667 800,576C800,563.667 799.167,551.75 797.5,540.25C795.833,528.75 793.667,517 791,505C790.333,501.667 790,498.667 790,496C790,487.667 792.667,479.833 798,472.5C803.333,465.167 810.5,461.5 819.5,461.5C822.5,461.5 825.5,462 828.5,463C857.167,472.667 883.5,486.417 907.5,504.25C931.5,522.083 952.083,542.917 969.25,566.75C986.417,590.583 999.833,616.667 1009.5,645C1019.17,673.333 1024,702.5 1024,732.5C1024,772.833 1016.58,810.667 1001.75,846C986.917,881.333 966.583,912.167 940.75,938.5C914.917,964.833 884.417,985.667 849.25,1001C814.083,1016.33 776.333,1024 736,1024C712,1024 688.333,1021 665,1015C641.667,1009 619.417,1000.33 598.25,989C577.083,977.667 557.583,963.917 539.75,947.75C521.917,931.583 506.667,913.167 494,892.5C492.333,889.833 491.5,886.833 491.5,883.5ZM608,576C616.667,576 624.167,572.833 630.5,566.5C636.833,560.167 640,552.667 640,544C640,535.333 636.833,527.833 630.5,521.5C624.167,515.167 616.667,512 608,512L224,512C215.333,512 207.833,515.167 201.5,521.5C195.167,527.833 192,535.333 192,544C192,552.667 195.167,560.167 201.5,566.5C207.833,572.833 215.333,576 224,576Z" fill="#000000" fill-opacity="1">
  </path>
</svg>