<svg xmlns="http://www.w3.org/2000/svg" viewBox="0 0 16 16">
  <defs>
    <style>.canvas{fill: none; opacity: 0;}.light-blue-10{fill: #005dba; opacity: 0.1;}.light-blue{fill: #005dba; opacity: 1;}.light-defaultgrey-10{fill: #212121; opacity: 0.1;}.light-defaultgrey{fill: #212121; opacity: 1;}.cls-1{opacity:0.75;}</style>
  </defs>
  <title>IconLightSerialKey</title>
  <g id="canvas">
    <path class="canvas" d="M16,16H0V0H16Z" />
  </g>
  <g id="level-1">
    <path class="light-blue-10" d="M8,1.5A6.5,6.5,0,0,0,1.5,8a6.591,6.591,0,0,0,.31,2H4.37a3.866,3.866,0,0,1,1.94-.93,2.88,2.88,0,0,1,.59-.06A1.455,1.455,0,0,1,6.5,8,1.5,1.5,0,1,1,8.63,9.35a3.738,3.738,0,0,1,.52.28l.09.06A3.968,3.968,0,0,1,11,13a1.34,1.34,0,0,1-.01.2,3.792,3.792,0,0,1-.07.6A6.5,6.5,0,0,0,8,1.5Z" />
    <path class="light-blue" d="M8,6a2.458,2.458,0,0,0-.28.02,1.849,1.849,0,0,0-.42.11.185.185,0,0,0-.07.02.467.467,0,0,0-.1.05c-.03.01-.05.03-.08.04a.879.879,0,0,0-.1.06c-.05.04-.1.07-.15.11a1.8,1.8,0,0,0-.39.39c-.04.05-.07.1-.11.15a.879.879,0,0,0-.06.1c-.01.03-.03.05-.04.08a.467.467,0,0,0-.05.1.185.185,0,0,0-.02.07,1.849,1.849,0,0,0-.11.42A2.458,2.458,0,0,0,6,8a1.97,1.97,0,0,0,.31,1.07,2.88,2.88,0,0,1,.59-.06A.34.34,0,0,1,7,9a3.878,3.878,0,0,1,1.63.35,3.738,3.738,0,0,1,.52.28.1.1,0,0,0,.05-.04,1.8,1.8,0,0,0,.39-.39.583.583,0,0,0,.11-.15.879.879,0,0,0,.06-.1.3.3,0,0,0,.04-.08.467.467,0,0,0,.05-.1.185.185,0,0,0,.02-.07,1.849,1.849,0,0,0,.11-.42A2.458,2.458,0,0,0,10,8,2.006,2.006,0,0,0,8,6ZM8,9A1,1,0,1,1,9,8,1,1,0,0,1,8,9ZM8,6a2.458,2.458,0,0,0-.28.02,1.849,1.849,0,0,0-.42.11.185.185,0,0,0-.07.02.467.467,0,0,0-.1.05c-.03.01-.05.03-.08.04a.879.879,0,0,0-.1.06c-.05.04-.1.07-.15.11a1.8,1.8,0,0,0-.39.39c-.04.05-.07.1-.11.15a.879.879,0,0,0-.06.1c-.01.03-.03.05-.04.08a.467.467,0,0,0-.05.1.185.185,0,0,0-.02.07,1.849,1.849,0,0,0-.11.42A2.458,2.458,0,0,0,6,8a1.97,1.97,0,0,0,.31,1.07,2.88,2.88,0,0,1,.59-.06A.34.34,0,0,1,7,9a3.878,3.878,0,0,1,1.63.35,3.738,3.738,0,0,1,.52.28.1.1,0,0,0,.05-.04,1.8,1.8,0,0,0,.39-.39.583.583,0,0,0,.11-.15.879.879,0,0,0,.06-.1.3.3,0,0,0,.04-.08.467.467,0,0,0,.05-.1.185.185,0,0,0,.02-.07,1.849,1.849,0,0,0,.11-.42A2.458,2.458,0,0,0,10,8,2.006,2.006,0,0,0,8,6ZM8,9A1,1,0,1,1,9,8,1,1,0,0,1,8,9ZM8,1a7.005,7.005,0,0,0-6.71,9H2.35A5.8,5.8,0,0,1,2,8a5.878,5.878,0,0,1,.37-2.06,2.34,2.34,0,0,1,.09-.24,2.14,2.14,0,0,1,.1-.22,2.4,2.4,0,0,1,.11-.23A6.025,6.025,0,0,1,5.25,2.67a2.4,2.4,0,0,1,.23-.11,2.14,2.14,0,0,1,.22-.1,2.34,2.34,0,0,1,.24-.09A5.878,5.878,0,0,1,8,2a6,6,0,0,1,6,6,5.878,5.878,0,0,1-.37,2.06,2.34,2.34,0,0,1-.09.24,2.14,2.14,0,0,1-.1.22,2.4,2.4,0,0,1-.11.23,5.762,5.762,0,0,1-1.09,1.49,5.416,5.416,0,0,1-1.25.96,3.792,3.792,0,0,1-.07.6v.01a3.4,3.4,0,0,1-.2.64A7,7,0,0,0,8,1ZM8,6a2.458,2.458,0,0,0-.28.02,1.849,1.849,0,0,0-.42.11.185.185,0,0,0-.07.02.467.467,0,0,0-.1.05c-.03.01-.05.03-.08.04a.879.879,0,0,0-.1.06c-.05.04-.1.07-.15.11a1.8,1.8,0,0,0-.39.39c-.04.05-.07.1-.11.15a.879.879,0,0,0-.06.1c-.01.03-.03.05-.04.08a.467.467,0,0,0-.05.1.185.185,0,0,0-.02.07,1.849,1.849,0,0,0-.11.42A2.458,2.458,0,0,0,6,8a1.97,1.97,0,0,0,.31,1.07,2.88,2.88,0,0,1,.59-.06A.34.34,0,0,1,7,9a3.878,3.878,0,0,1,1.63.35,3.738,3.738,0,0,1,.52.28.1.1,0,0,0,.05-.04,1.8,1.8,0,0,0,.39-.39.583.583,0,0,0,.11-.15.879.879,0,0,0,.06-.1.3.3,0,0,0,.04-.08.467.467,0,0,0,.05-.1.185.185,0,0,0,.02-.07,1.849,1.849,0,0,0,.11-.42A2.458,2.458,0,0,0,10,8,2.006,2.006,0,0,0,8,6ZM8,9A1,1,0,1,1,9,8,1,1,0,0,1,8,9Z" />
    <g class="cls-1">
      <path class="light-blue" d="M9.98,8.28H9.97a2.134,2.134,0,0,1-.1.42.185.185,0,0,1-.02.07.467.467,0,0,1-.05.1.3.3,0,0,1-.04.08.879.879,0,0,1-.06.1.583.583,0,0,1-.11.15l3.74,1.55a2.4,2.4,0,0,0,.11-.23,2.14,2.14,0,0,0,.1-.22,2.34,2.34,0,0,0,.09-.24c.03-.08.05-.16.08-.24ZM9.2,9.59a.1.1,0,0,1-.05.04l.09.06ZM2.67,5.25a2.4,2.4,0,0,0-.11.23,2.14,2.14,0,0,0-.1.22,2.34,2.34,0,0,0-.09.24c-.03.08-.05.16-.08.24L6.02,7.72h.01a2.134,2.134,0,0,1,.1-.42.185.185,0,0,1,.02-.07.467.467,0,0,1,.05-.1c.01-.03.03-.05.04-.08a.879.879,0,0,1,.06-.1.583.583,0,0,1,.11-.15ZM6.18,2.29c-.08.03-.16.05-.24.08a2.34,2.34,0,0,0-.24.09,2.14,2.14,0,0,0-.22.1,2.4,2.4,0,0,0-.23.11L6.8,6.41c.05-.04.1-.07.15-.11a.879.879,0,0,1,.1-.06c.03-.01.05-.03.08-.04a.467.467,0,0,1,.1-.05.185.185,0,0,1,.07-.02,2.134,2.134,0,0,1,.42-.1V6.02Z" />
      <path class="light-blue-10" d="M9.85,8.77a.467.467,0,0,1-.05.1.3.3,0,0,1-.04.08.879.879,0,0,1-.06.1.583.583,0,0,1-.11.15,1.8,1.8,0,0,1-.39.39.1.1,0,0,1-.05.04l.09.06A3.968,3.968,0,0,1,11,13a1.34,1.34,0,0,1-.01.2,5.416,5.416,0,0,0,1.25-.96,5.762,5.762,0,0,0,1.09-1.49,2.4,2.4,0,0,0,.11-.23,2.14,2.14,0,0,0,.1-.22ZM5.7,2.46a2.14,2.14,0,0,0-.22.1,2.4,2.4,0,0,0-.23.11A6.025,6.025,0,0,0,2.67,5.25a2.4,2.4,0,0,0-.11.23,2.14,2.14,0,0,0-.1.22L6.15,7.23a.467.467,0,0,1,.05-.1.3.3,0,0,1,.04-.08.879.879,0,0,1,.06-.1.583.583,0,0,1,.11-.15,1.8,1.8,0,0,1,.39-.39.583.583,0,0,1,.15-.11.879.879,0,0,1,.1-.06.3.3,0,0,1,.08-.04.467.467,0,0,1,.1-.05Z" />
    </g>
    <path class="light-defaultgrey-10" d="M9.5,13a2.493,2.493,0,0,1-4.893.684L3.475,14l-.5-.5-1,.5-1.5-1.5,1-1H5.011A2.493,2.493,0,0,1,9.5,13Z" />
    <path class="light-defaultgrey" d="M8,13a.5.5,0,1,1-.5-.5A.5.5,0,0,1,8,13Zm2,0a2.992,2.992,0,0,1-5.7,1.288l-.693.193-.488-.127-.245-.246-.678.339-.577-.093-1.5-1.5v-.708l1-1L1.476,11h3.3A2.962,2.962,0,0,1,7,10,3,3,0,0,1,10,13Zm-8.817-.5.891.892.678-.339.577.093.293.294.85-.237.615.343A2,2,0,1,0,7,11a1.979,1.979,0,0,0-1.589.8l-.4.2H1.683Z" />
  </g>
</svg>
