<?xml version="1.0" encoding="UTF-8" standalone="no"?>
<svg width="30px" height="30px" viewBox="0 0 30 30" version="1.1" xmlns="http://www.w3.org/2000/svg" xmlns:xlink="http://www.w3.org/1999/xlink" xmlns:sketch="http://www.bohemiancoding.com/sketch/ns">
  <!-- Generator: Sketch 3.4 (15575) - http://www.bohemiancoding.com/sketch -->
  <title>ad-alert.warning</title>
  <desc>Created with Sketch.</desc>
  <defs></defs>
  <g id="File-Report" stroke="none" stroke-width="1" fill="none" fill-rule="evenodd" sketch:type="MSPage">
    <g id="ad-alert.warning" sketch:type="MSArtboardGroup" fill="#FFBF2E">
      <path d="M29.5445089,23.2127941 L17.7476218,2.72715352 L17.743568,2.72934286 C17.59576,2.42815243 17.4049193,2.145415 17.1557661,1.89489212 C15.9655063,0.701702626 14.0349592,0.701702626 12.8443876,1.89489212 C12.6282886,2.11132387 12.4508566,2.35371492 12.3164573,2.61018029 L12.3164573,2.60830372 L0.527677852,23.0986357 L0.527677852,23.1030144 C0.34151461,23.3769945 0.193706609,23.6863167 0.10483471,24.0266025 C-0.331417175,25.6589108 0.633700469,27.3368824 2.25990031,27.7719352 C2.552398,27.8507514 2.84832583,27.8823404 3.14051169,27.8735831 L26.7283611,27.8695171 L26.7283611,27.867015 C27.8581256,27.9455185 28.9850837,27.3959945 29.5912836,26.3488652 C30.1703542,25.3389546 30.1154719,24.136695 29.5445089,23.2127941 L29.5445089,23.2127941 Z M16.3970808,23.3106888 C15.9910765,23.6950741 15.5158457,23.8886742 14.9745067,23.8886742 C14.4235009,23.8886742 13.9414099,23.6950741 13.5391476,23.3106888 C13.1328315,22.9222376 12.9295175,22.4612255 12.9295175,21.9235865 C12.9295175,21.3890751 13.1328315,20.9261864 13.5391476,20.5311672 C13.941098,20.1361479 14.4235009,19.9428606 14.9745067,19.9428606 C15.5158457,19.9428606 15.9913883,20.1361479 16.3970808,20.5311672 C16.8037087,20.9261864 17.0070226,21.3890751 17.0070226,21.9235865 C17.0073345,22.4615382 16.8037087,22.9222376 16.3970808,23.3106888 L16.3970808,23.3106888 Z M16.8841611,11.3309412 C16.7825042,11.8110318 16.6505996,12.3718153 16.4949958,13.0170446 C16.3462523,13.6244297 16.1725623,14.3844429 15.9860872,15.296146 C15.7911927,16.2037832 15.5925562,17.3297287 15.376769,18.6671018 L14.560083,18.6671018 C14.3480378,17.3147161 14.144412,16.1890834 13.9498293,15.2883269 C13.7602359,14.3906981 13.5905997,13.6350636 13.4418562,13.0251764 C13.3062097,12.4668951 13.1842836,11.9217498 13.0698416,11.3841108 C12.9557114,10.8486612 12.9005172,10.4473867 12.9005172,10.1755959 C12.9005172,9.63420381 13.0994656,9.16943852 13.505158,8.78098731 C13.9114741,8.39378715 14.3951243,8.20300194 14.9623453,8.20300194 C15.5211469,8.20300194 16.0072917,8.39378715 16.4179735,8.78098731 C16.8333326,9.16943852 17.0413241,9.63420381 17.0413241,10.1755959 C17.0413241,10.4686545 16.98613,10.8530398 16.8841611,11.3309412 L16.8841611,11.3309412 Z" id="dialog.warning" sketch:type="MSShapeGroup"></path>
    </g>
  </g>
</svg>
