<svg width="121" height="89" viewBox="0 0 121 89" fill="none" xmlns="http://www.w3.org/2000/svg">
<g filter="url(#filter0_d)">
<circle cx="11.8024" cy="12.225" r="11.268" fill="#4F9C4D"/>
<path d="M8.9228 17.182L8.91889 17.1783L6.26178 14.5208C5.71645 13.9756 5.71645 13.0917 6.26178 12.5465C6.80684 12.0014 7.69083 12.0014 8.23584 12.5465L9.90981 14.2205L15.689 8.44137C16.2343 7.89617 17.1182 7.89617 17.6633 8.44137C18.2087 8.98658 18.2087 9.87056 17.6633 10.4158L10.9023 17.1767L10.8971 17.182C10.4199 17.6591 9.68374 17.7186 9.14179 17.3609C9.06436 17.3098 8.99092 17.2501 8.9228 17.182Z" fill="white"/>
<circle cx="11.8024" cy="43.798" r="11.268" fill="#4F9C4D"/>
<path d="M8.9228 48.755L8.91889 48.7513L6.26178 46.0938C5.71645 45.5486 5.71645 44.6647 6.26178 44.1195C6.80684 43.5744 7.69083 43.5744 8.23584 44.1195L9.90981 45.7935L15.689 40.0144C16.2343 39.4692 17.1182 39.4692 17.6633 40.0144C18.2087 40.5596 18.2087 41.4436 17.6633 41.9888L10.9023 48.7497L10.8971 48.755C10.4199 49.2321 9.68374 49.2916 9.14179 48.9339C9.06436 48.8828 8.99092 48.8231 8.9228 48.755Z" fill="white"/>
<circle cx="11.8024" cy="74.5443" r="11.268" fill="#4F9C4D"/>
<path d="M8.9228 79.5013L8.91889 79.4976L6.26178 76.8402C5.71645 76.2949 5.71645 75.4111 6.26178 74.8659C6.80684 74.3207 7.69083 74.3207 8.23584 74.8659L9.90981 76.5398L15.689 70.7607C16.2343 70.2155 17.1182 70.2155 17.6633 70.7607C18.2087 71.3059 18.2087 72.1899 17.6633 72.7351L10.9023 79.496L10.8971 79.5013C10.4199 79.9784 9.68374 80.038 9.14179 79.6802C9.06436 79.6291 8.99092 79.5694 8.9228 79.5013Z" fill="white"/>
<rect x="30" y="5.31177" width="90" height="15" rx="1.5" fill="#004880"/>
<rect x="30" y="37" width="90" height="15" rx="1.5" fill="#004880"/>
<rect x="30" y="68" width="90" height="15" rx="1.5" fill="#004880"/>
</g>
<defs>
<filter id="filter0_d" x="0.534424" y="0.957031" width="120.466" height="87.8553" filterUnits="userSpaceOnUse" color-interpolation-filters="sRGB">
<feFlood flood-opacity="0" result="BackgroundImageFix"/>
<feColorMatrix in="SourceAlpha" type="matrix" values="0 0 0 0 0 0 0 0 0 0 0 0 0 0 0 0 0 0 127 0"/>
<feOffset dx="1" dy="3"/>
<feColorMatrix type="matrix" values="0 0 0 0 0.784314 0 0 0 0 0.784314 0 0 0 0 0.784314 0 0 0 1 0"/>
<feBlend mode="normal" in2="BackgroundImageFix" result="effect1_dropShadow"/>
<feBlend mode="normal" in="SourceGraphic" in2="effect1_dropShadow" result="shape"/>
</filter>
</defs>
</svg>
